<?xml version="1.0" encoding="UTF-8" standalone="no"?>
<!-- Created with Inkscape (http://www.inkscape.org/) -->

<svg
   xmlns:dc="http://purl.org/dc/elements/1.1/"
   xmlns:cc="http://creativecommons.org/ns#"
   xmlns:rdf="http://www.w3.org/1999/02/22-rdf-syntax-ns#"
   xmlns:svg="http://www.w3.org/2000/svg"
   xmlns="http://www.w3.org/2000/svg"
   xmlns:sodipodi="http://sodipodi.sourceforge.net/DTD/sodipodi-0.dtd"
   xmlns:inkscape="http://www.inkscape.org/namespaces/inkscape"
   version="1.1"
   id="svg835"
   xml:space="preserve"
   width="800"
   height="800"
   viewBox="0 0 800 800"
   sodipodi:docname="ant-silhouette-2-publicdomainvectors.org.svg"
   inkscape:version="0.92.4 (5da689c313, 2019-01-14)"><metadata
     id="metadata841"><rdf:RDF><cc:Work
         rdf:about=""><dc:format>image/svg+xml</dc:format><dc:type
           rdf:resource="http://purl.org/dc/dcmitype/StillImage" /><dc:title></dc:title></cc:Work></rdf:RDF></metadata><defs
     id="defs839"><clipPath
       clipPathUnits="userSpaceOnUse"
       id="clipPath851"><path
         d="M 0,600 H 600 V 0 H 0 Z"
         id="path849"
         inkscape:connector-curvature="0" /></clipPath></defs><sodipodi:namedview
     pagecolor="#ffffff"
     bordercolor="#666666"
     borderopacity="1"
     objecttolerance="10"
     gridtolerance="10"
     guidetolerance="10"
     inkscape:pageopacity="0"
     inkscape:pageshadow="2"
     inkscape:window-width="724"
     inkscape:window-height="480"
     id="namedview837"
     showgrid="false"
     inkscape:zoom="0.295"
     inkscape:cx="400"
     inkscape:cy="400"
     inkscape:window-x="0"
     inkscape:window-y="0"
     inkscape:window-maximized="0"
     inkscape:current-layer="g843" /><g
     id="g843"
     inkscape:groupmode="layer"
     inkscape:label="ant-silhouette-2-publicdomainvectors.org"
     transform="matrix(1.3333333,0,0,-1.3333333,0,800)"><g
       id="g845"><g
         id="g847"
         clip-path="url(#clipPath851)"><path
           d="m 309.715,372.323 c 4,1.067 5.332,21.861 9.331,23.461 3.999,1.599 24.717,-37.118 27.192,-43.055 l -9.863,-5.806 c 0,0 -11.197,36.33 -14.529,37.664 -3.335,1.333 -7.6,-15.731 -7.6,-15.731 0,0 -5.063,-0.798 -4.531,3.467 m 64.78,-17.666 c 3.468,5.137 14.396,44.324 16.53,54.989 2.133,10.664 33.055,-27.191 47.986,-24.527 v -2.399 c -3.599,-3.799 -31.192,12.731 -39.987,16.997 -8.798,4.262 -14.129,-49.255 -17.596,-51.434 -3.468,-2.178 -6.13,3.778 -6.933,6.374 m -17.728,-9.856 c -1.419,-0.115 -2.826,-0.304 -4.162,-0.567 -1.318,-0.337 -2.63,-0.574 -3.795,-1.037 -1.219,-0.357 -2.263,-0.893 -3.279,-1.341 -0.977,-0.486 -1.795,-1.067 -2.59,-1.518 -0.636,-0.567 -1.258,-1.051 -1.732,-1.515 -0.798,-1.091 -1.294,-1.69 -1.294,-1.69 0,0 0.25,0.736 0.749,1.986 0.357,0.573 0.875,1.26 1.473,2.087 0.691,0.664 1.441,1.516 2.426,2.203 0.99,0.667 2.058,1.458 3.332,1.984 1.221,0.655 2.59,1.123 4.032,1.568 1.447,0.376 2.968,0.768 4.543,0.912 1.574,0.161 3.184,0.254 4.801,0.133 1.619,-0.007 3.215,-0.463 4.78,-0.74 1.53,-0.515 3.055,-0.953 4.381,-1.776 0.661,-0.394 1.371,-0.671 1.945,-1.147 0.568,-0.476 1.125,-0.943 1.669,-1.397 1.127,-0.842 1.79,-2.07 2.567,-2.976 0.694,-0.985 1.056,-2.066 1.478,-2.924 0.47,-0.847 0.516,-1.729 0.715,-2.376 0.304,-1.337 0.423,-2.087 0.423,-2.087 0,0 -0.401,0.688 -1.007,1.869 -0.337,0.569 -0.553,1.354 -1.184,2.038 -0.593,0.697 -1.12,1.564 -1.871,2.346 -0.861,0.684 -1.558,1.64 -2.634,2.262 -1.018,0.689 -2.087,1.382 -3.343,1.863 -1.163,0.655 -2.568,0.846 -3.882,1.307 -1.395,0.197 -2.785,0.58 -4.237,0.548 -1.434,0.145 -2.88,0.095 -4.304,-0.015 M 328.3,337.985 c -0.695,1.076 -1.882,2.036 -2.899,3.208 -1.079,1.131 -2.495,2.158 -3.792,3.363 -1.508,1.02 -2.926,2.241 -4.627,3.251 -0.827,0.523 -1.668,1.056 -2.52,1.594 -0.902,0.462 -1.801,0.946 -2.695,1.456 -1.787,1.016 -3.725,1.84 -5.61,2.733 -1.945,0.768 -3.855,1.642 -5.824,2.243 -1.941,0.713 -3.882,1.274 -5.786,1.772 -1.902,0.46 -3.762,0.834 -5.538,1.169 -1.772,0.118 -3.491,0.57 -5.054,0.524 -1.578,0.03 -3.068,0.177 -4.303,0.018 -1.261,-0.128 -2.447,-0.037 -3.406,-0.327 -1.931,-0.383 -3.054,-0.546 -3.054,-0.546 0,0 0.922,0.661 2.579,1.719 0.782,0.588 1.948,0.989 3.293,1.519 1.361,0.608 2.908,0.934 4.632,1.263 1.727,0.457 3.606,0.437 5.625,0.578 1.989,-0.035 4.13,-0.046 6.282,-0.397 2.144,-0.361 4.396,-0.669 6.572,-1.375 2.236,-0.532 4.365,-1.469 6.537,-2.294 2.083,-1.019 4.219,-1.955 6.139,-3.212 1.978,-1.154 3.789,-2.505 5.474,-3.901 1.778,-1.26 3.157,-2.947 4.578,-4.327 1.278,-1.569 2.501,-3.016 3.383,-4.549 0.867,-1.547 1.738,-2.871 2.141,-4.275 0.452,-1.36 0.977,-2.451 1.046,-3.498 0.291,-2.019 0.369,-3.111 0.369,-3.111 0,0 -0.618,1.003 -1.553,2.649 -0.369,0.858 -1.283,1.693 -1.989,2.753 m -72.004,22.657 c -0.396,0.709 -0.821,1.81 -1.622,3.059 -0.39,0.618 -0.827,1.302 -1.301,2.048 -0.519,0.708 -1.144,1.415 -1.76,2.191 -1.31,1.497 -3.029,2.894 -4.992,4.164 -2.093,1.087 -4.402,2.091 -7.059,2.538 -2.644,0.433 -5.495,0.587 -8.478,0.287 -2.978,-0.23 -6.037,-0.911 -9.122,-1.752 -3.093,-0.803 -6.16,-1.995 -9.17,-3.292 -3.036,-1.266 -5.997,-2.742 -8.829,-4.347 -2.81,-1.64 -5.596,-3.249 -8.129,-5.059 -2.557,-1.773 -4.952,-3.594 -7.147,-5.419 -2.17,-1.854 -4.157,-3.685 -5.883,-5.482 -3.429,-3.611 -5.822,-7.065 -7.138,-9.682 -0.622,-1.294 -1.134,-2.391 -1.33,-3.181 -0.255,-0.771 -0.394,-1.181 -0.394,-1.181 0,0 0.019,0.432 0.053,1.241 -0.004,0.815 0.108,1.987 0.473,3.531 0.377,1.51 0.915,3.332 1.86,5.282 0.887,1.983 2.113,4.108 3.638,6.295 0.756,1.1 1.626,2.174 2.49,3.329 0.937,1.079 1.902,2.214 2.961,3.306 2.118,2.183 4.42,4.444 7.057,6.464 2.595,2.067 5.372,4.102 8.376,5.885 3.001,1.788 6.15,3.445 9.415,4.891 3.301,1.357 6.678,2.569 10.138,3.395 3.427,0.93 6.965,1.312 10.401,1.403 3.435,0.171 6.831,-0.401 9.91,-1.281 3.124,-0.839 5.804,-2.489 8.024,-4.17 1.015,-0.969 2.057,-1.824 2.832,-2.819 0.724,-1.039 1.542,-1.909 2.028,-2.912 0.504,-0.983 1.049,-1.854 1.397,-2.731 0.309,-0.884 0.591,-1.696 0.846,-2.43 0.533,-1.442 0.586,-2.687 0.785,-3.466 0.148,-0.796 0.227,-1.22 0.227,-1.22 0,0 -0.194,0.387 -0.557,1.115 M 385.728,339.25 c 0.132,0.545 0.529,1.153 0.915,1.895 0.371,0.777 1.003,1.424 1.627,2.245 0.709,0.711 1.474,1.545 2.443,2.201 0.484,0.335 0.981,0.679 1.489,1.03 0.539,0.304 1.119,0.561 1.7,0.847 0.569,0.311 1.201,0.497 1.834,0.707 0.637,0.207 1.272,0.46 1.959,0.527 0.674,0.103 1.356,0.237 2.046,0.307 l 2.101,0.04 c 0.698,0.014 1.392,-0.182 2.086,-0.268 0.696,-0.079 1.371,-0.249 2.023,-0.498 1.358,-0.342 2.532,-1.055 3.662,-1.71 1.103,-0.69 2.033,-1.568 2.878,-2.371 0.745,-0.908 1.502,-1.723 2.016,-2.591 0.506,-0.874 0.931,-1.686 1.298,-2.399 0.144,-0.321 0.253,-0.628 0.351,-0.924 0.128,-0.379 0.238,-0.737 0.342,-1.039 0.284,-0.903 0.439,-1.46 0.486,-1.635 0.01,-0.037 0.022,-0.08 0.022,-0.08 0,0 -0.392,0.52 -1.076,1.428 -0.338,0.448 -0.702,1.014 -1.171,1.614 -0.522,0.567 -1.103,1.197 -1.696,1.899 -0.623,0.676 -1.443,1.25 -2.178,1.962 -0.84,0.58 -1.734,1.188 -2.691,1.703 -0.986,0.476 -2.012,0.914 -3.117,1.182 -0.538,0.193 -1.093,0.319 -1.668,0.358 -0.575,0.048 -1.135,0.206 -1.716,0.174 l -1.734,0.022 c -0.577,-0.043 -1.148,-0.145 -1.718,-0.211 -1.125,-0.192 -2.258,-0.422 -3.294,-0.807 -1.053,-0.361 -2.049,-0.775 -2.954,-1.272 -0.92,-0.464 -1.716,-1.043 -2.483,-1.54 -0.654,-0.607 -1.428,-1.069 -1.888,-1.627 -0.476,-0.554 -1.027,-0.958 -1.329,-1.45 -0.68,-0.914 -1.066,-1.436 -1.066,-1.436 0,0 0.182,0.625 0.501,1.717 m 34.386,6.379 c 0.165,0.547 0.664,1.115 1.149,1.836 0.479,0.764 1.238,1.288 1.999,2.028 0.815,0.631 1.762,1.258 2.812,1.814 1.078,0.473 2.199,1.089 3.459,1.378 2.464,0.839 5.255,1.067 8.029,0.993 1.39,-0.123 2.777,-0.283 4.117,-0.678 1.369,-0.23 2.6,-0.979 3.804,-1.496 1.123,-0.77 2.257,-1.416 3.037,-2.421 0.401,-0.473 0.864,-0.864 1.16,-1.364 0.272,-0.513 0.534,-1.01 0.784,-1.485 0.594,-0.896 0.612,-1.931 0.842,-2.725 0.249,-0.808 0.144,-1.551 0.127,-2.14 -0.064,-1.182 -0.131,-1.824 -0.131,-1.824 0,0 -0.182,0.633 -0.501,1.742 -0.15,0.542 -0.269,1.205 -0.671,1.87 -0.4,0.653 -0.594,1.495 -1.249,2.149 -0.55,0.716 -1.152,1.448 -1.993,2.032 -0.703,0.718 -1.763,1.079 -2.678,1.653 -1.063,0.349 -2.093,0.825 -3.279,1.01 -1.136,0.311 -2.345,0.403 -3.554,0.486 -1.205,0.076 -2.439,0.078 -3.636,-0.029 -1.197,-0.14 -2.387,-0.206 -3.51,-0.495 -2.276,-0.411 -4.286,-1.198 -5.96,-1.997 -0.737,-0.506 -1.618,-0.838 -2.122,-1.335 -0.525,-0.498 -1.151,-0.819 -1.483,-1.306 -0.728,-0.901 -1.143,-1.418 -1.143,-1.418 0,0 0.215,0.628 0.591,1.722 m 56.383,12.431 c 2.236,0.62 5.077,0.933 8.314,1.448 3.249,0.547 6.943,0.658 10.99,0.838 2.034,-0.047 4.149,-0.093 6.34,-0.145 2.192,-0.122 4.445,-0.508 6.774,-0.767 2.327,-0.298 4.669,-0.953 7.099,-1.439 2.405,-0.593 4.786,-1.51 7.242,-2.317 4.739,-2.048 9.683,-4.293 14.036,-7.629 2.298,-1.503 4.289,-3.415 6.41,-5.189 1.923,-1.971 4.008,-3.832 5.711,-6.011 3.62,-4.198 6.538,-8.906 9.145,-13.623 2.639,-4.718 4.465,-9.705 6.171,-14.497 3.17,-9.687 4.769,-19.054 5.357,-27.085 0.672,-8.037 0.345,-14.755 -0.163,-19.405 -0.478,-4.67 -1.35,-7.218 -1.35,-7.218 0,0 0.335,2.649 0.079,7.261 -0.213,4.607 -0.818,11.166 -2.212,18.892 -1.377,7.726 -3.595,16.601 -7.016,25.66 -1.776,4.498 -3.826,9.046 -6.289,13.433 -2.488,4.359 -5.252,8.669 -8.608,12.457 -1.528,2.029 -3.408,3.723 -5.126,5.557 -1.912,1.627 -3.69,3.407 -5.755,4.787 -3.92,3.054 -8.25,5.37 -12.537,7.418 -2.22,0.838 -4.388,1.734 -6.57,2.469 -2.218,0.6 -4.351,1.376 -6.517,1.807 -2.168,0.405 -4.269,0.879 -6.335,1.199 -2.081,0.254 -4.089,0.498 -6.02,0.731 -1.939,0.187 -3.814,0.164 -5.6,0.284 -1.787,0.115 -3.481,0.19 -5.069,0.104 -3.18,-0.143 -5.985,0.014 -8.304,-0.271 -4.64,-0.325 -7.291,-0.511 -7.291,-0.511 0,0 2.579,0.64 7.094,1.762 m 71.878,-178.489 c -27.876,10.842 -52.714,27.222 -50.306,36.696 -11.572,13.995 -58.658,98.872 -58.658,98.872 -10.675,8.713 -33.922,-19.593 -46.387,-26.391 -4.452,3.199 -10.707,22.093 -11.596,30.791 -0.772,7.537 -11.266,4.413 -16.955,-2.276 -0.21,0.141 -0.419,0.285 -0.64,0.408 4.451,8.798 18.304,14.3 19.193,5.6 0.232,-2.256 0.826,-5.199 1.654,-8.374 1.431,2.51 2.421,5.262 2.869,8.174 3.512,-2.925 8.248,-4.733 13.473,-4.733 9.01,0 16.578,5.343 18.868,12.61 3.583,-4.086 9.193,-6.729 15.522,-6.729 3.3,0 6.403,0.722 9.131,1.987 13.485,-55.611 54.615,-86.625 117.634,-79.447 11.996,4.8 11.283,11.393 11.283,11.393 0,0 15.508,140.963 -120.452,100.714 l -1.91,-7.179 c -3.574,4.194 -9.259,6.921 -15.686,6.921 -9.009,0 -16.579,-5.342 -18.867,-12.608 -3.583,4.085 -9.193,6.729 -15.523,6.729 -8.46,0 -15.648,-4.714 -18.391,-11.306 -5.075,6.479 -13.392,10.709 -22.797,10.709 -10.028,0 -18.819,-4.806 -23.764,-12.025 -5.173,10.73 -15.044,21.687 -26.377,25.987 -20.129,7.637 -36.37,4.113 -45,-7.612 -2.166,18.377 -15.01,34.672 -42.322,29.852 -22.513,-3.974 -39.319,-17.426 -49.235,-33.684 -3.068,-0.681 -6.098,-1.615 -9.127,-2.472 -6.118,-1.816 -12.269,-3.857 -18.446,-4.981 -3.075,-0.557 -6.179,-0.844 -9.023,-0.49 -1.431,0.153 -2.741,0.565 -3.892,1.136 -0.522,0.235 -1.23,0.701 -1.902,1.112 l -1.918,1.265 c -5.182,3.543 -10.405,7.269 -15.806,10.363 -5.384,3.133 -10.957,5.691 -16.497,7.514 -5.539,1.83 -11.051,2.864 -16.192,3.28 -10.338,0.795 -18.951,-1.039 -24.692,-2.693 -2.876,-0.86 -5.112,-1.632 -6.596,-2.233 -1.496,-0.582 -2.295,-0.893 -2.295,-0.893 -0.076,-0.03 -0.168,-0.068 -0.246,-0.104 -2.414,-1.096 -3.483,-3.941 -2.387,-6.356 1.097,-2.415 3.942,-3.486 6.357,-2.389 l 0.205,0.093 c 0,0 0.691,0.312 1.993,0.904 1.293,0.617 3.231,1.405 5.731,2.312 4.996,1.749 12.412,3.781 21.542,3.599 9.108,-0.134 19.755,-2.806 30.269,-8.219 5.295,-2.648 10.495,-5.926 16.03,-9.269 l 2.153,-1.251 c 0.716,-0.379 1.363,-0.775 2.315,-1.176 1.759,-0.763 3.611,-1.187 5.394,-1.288 3.583,-0.245 6.979,0.302 10.227,1.061 6.499,1.548 12.553,3.944 18.541,6.067 2.202,0.759 4.408,1.548 6.605,2.238 -4.385,-7.973 -7.144,-16.5 -8.162,-24.851 -0.691,0.176 -1.37,0.359 -2.074,0.526 -1.496,0.347 -2.969,0.697 -4.597,0.897 -1.647,0.156 -3.356,-0.053 -4.933,-0.392 -6.373,-1.529 -12.145,-4.762 -18.04,-7.714 -5.863,-2.98 -11.805,-6.155 -17.945,-7.942 -3.04,-0.882 -6.175,-1.304 -8.849,-0.719 -1.168,0.287 -2.896,1.01 -4.349,1.581 -1.541,0.62 -3.076,1.243 -4.606,1.859 -6.157,2.491 -12.39,4.752 -18.6,6.464 -12.394,3.495 -24.766,4.629 -35.313,3.452 -10.578,-1.097 -19.067,-4.341 -24.653,-7.063 -2.796,-1.379 -4.947,-2.579 -6.356,-3.47 -1.424,-0.876 -2.183,-1.341 -2.183,-1.341 -0.066,-0.041 -0.143,-0.092 -0.206,-0.133 -2.186,-1.5 -2.744,-4.49 -1.244,-6.676 1.501,-2.187 4.49,-2.744 6.676,-1.244 l 0.203,0.14 c 0,0 0.648,0.445 1.861,1.276 1.199,0.859 3.034,2.002 5.428,3.346 4.792,2.643 12.063,5.894 21.502,7.381 9.399,1.549 20.842,1.159 32.816,-1.549 5.995,-1.323 12.107,-3.178 18.307,-5.319 1.561,-0.537 3.13,-1.077 4.701,-1.62 1.677,-0.539 3.039,-1.102 5.14,-1.533 3.939,-0.615 7.611,0.225 10.924,1.353 6.653,2.342 12.434,5.893 18.157,9.179 5.702,3.262 11.259,6.722 17.087,8.441 1.475,0.388 2.886,0.639 4.322,0.587 1.442,-0.093 2.965,-0.433 4.421,-0.725 0.751,-0.157 1.484,-0.335 2.226,-0.503 -0.753,-7.699 -0.009,-15.204 2.349,-21.925 0,0 -7.995,-24.527 -0.532,-39.457 9.523,12.554 52.438,30.734 77.376,48.542 3.046,5.56 4.998,9.082 4.998,9.082 0.931,1.69 3.698,2.144 7.588,1.733 0.423,0.477 0.833,0.953 1.212,1.427 3.373,4.215 5.859,9.557 7.334,15.351 5.732,-12.458 21.006,-28.183 43.866,-29.492 -3.726,7.576 -8.649,16.989 -8.414,22.08 0.383,8.347 21.376,3.708 24.839,-4.453 -6.999,5.407 -21.191,7.303 -21.505,0.453 -0.4,-8.699 14.263,-30.027 12.264,-33.226 -5.599,6.798 -59.054,30.84 -63.849,22.127 0,0 -34.791,-62.781 -39.989,-76.776 1.151,-10.079 -9.512,-26.37 -20.2,-36.945 -4.158,-4.115 -8.321,-7.363 -11.792,-9.043 26.792,1.6 37.476,36.305 37.476,43.503 25.106,25.633 34.369,65.263 40.902,70.538 19.593,-8.872 60.162,-26.179 68.381,-22.067 6.16,3.081 2.84,16.241 1.46,26.084 2.214,0.623 4.474,1.375 6.782,2.267 0.31,0.121 0.584,0.271 0.868,0.413 1.237,-2.364 2.864,-4.525 4.803,-6.42 -0.799,4.786 -1.359,9.013 -1.243,11.55 0.334,7.247 11.15,0.531 15.913,-7 -5.249,6.381 -13.816,10.962 -14.112,4.524 -0.399,-8.696 7.122,-37.16 5.124,-40.359 -5.6,6.798 -21.198,9.485 -25.993,0.772 0,0 -9.598,-53.585 -14.796,-67.581 1.407,-12.316 -4.31,-52.489 -14.149,-66.045 -1.342,-1.849 -2.758,-3.215 -4.247,-3.936 26.794,1.599 22.795,57.185 22.795,64.381 16.795,14.798 12.396,56.061 15.196,65.583 20.994,-0.8 19.176,-11.179 27.391,-7.067 7.395,3.698 4.192,26.128 5.146,37.257 1.133,-0.127 2.282,-0.199 3.452,-0.199 3.628,0 7.089,0.634 10.27,1.779 3.978,-8.619 8.241,-19.132 21.188,-22.038 18.289,-4.112 9.73,19.193 44.12,24.257 23.863,-30.125 31.06,-70.644 51.855,-91.439 0,-7.197 40.853,-42.922 100.502,-44.52 -12.066,1.292 -26.076,5.208 -39.394,10.388"
           style="fill:#000000;fill-opacity:1;fill-rule:nonzero;stroke:none"
           id="path853"
           inkscape:connector-curvature="0" /></g></g></g></svg>