<svg width="407" height="407" viewBox="0 0 407 407" fill="none" xmlns="http://www.w3.org/2000/svg">
<path d="M44.5002 53.5L130 65.9916M130 65.9916L136.5 166M130 65.9916L250.5 81.5L190 159L298 277L155.5 354L136.5 166M44.5002 122.5L136.5 166" stroke="white" stroke-width="44"/>
<path d="M44.5002 53.5L130 65.9916M130 65.9916L136.5 166M130 65.9916L250.5 81.5L190 159L298 277L155.5 354L136.5 166M44.5002 122.5L136.5 166" stroke="black" stroke-width="35"/>
<path d="M44.5002 53.5L130 65.9916M130 65.9916L136.5 166M130 65.9916L250.5 81.5L190 159L298 277L155.5 354L136.5 166M44.5002 122.5L136.5 166" stroke="white" stroke-width="12"/>
</svg>
