<?xml version="1.0" encoding="utf-8"?>

<!DOCTYPE svg PUBLIC "-//W3C//DTD SVG 1.1//EN" "http://www.w3.org/Graphics/SVG/1.1/DTD/svg11.dtd">
<svg version="1.1" id="Layer_1" xmlns="http://www.w3.org/2000/svg" xmlns:xlink="http://www.w3.org/1999/xlink" x="0px" y="0px"
	 viewBox="0 0 947.733 1706.308" enable-background="new 0 0 947.733 1706.308" xml:space="preserve">
<g>
	<path d="M242.85,137.24c2.605,23.081-10.622,31.203-14.217,37.042C213.307,198.039,270.057,197.953,242.85,137.24z
		 M228.344,181.003c1.951-10.21,14.688-13.343,16.476-31.63C258.286,189.375,225.739,191.984,228.344,181.003z"/>
	<path d="M79.606,267.532c-0.253-4.565-1.13-9.136-0.463-13.719c4.623-41.572,63.162-64.277,49.734-99.047
		c-4.049-10.667-17.57-16.806-28.147-12.271c-13.865,6.254-5.558,29.191,3.256,21.292c5.045-4.308-0.993-9.17-1.778-11.07
		c-7.12-14.801,24.698-15.886,27.354,9.124C134.086,195.4,68.893,220.575,79.606,267.532z"/>
	<path d="M193.519,179.213c-7.91-14.015-5.702-24.097-5.13-30.003c-4.631,9.43-6.974,20.596-3.621,30.814
		C190.142,195.281,199.81,190.15,193.519,179.213z"/>
	<path d="M175.308,280.171c-0.355-1.363-1.238,0.205-1.658,0.637c-2.571,3.496-7.364,5.436-11.551,3.898
		c-10.293-3.59-8.741-21.92-3.664-15.281c5.78,7.639,16.777,1.765,14.776-5.436c-0.234-1.7-1.868-3.454-3.706-2.757
		c-1.628,0.6-1.604,2.528-1.904,3.958c-1.078,6.405-11.172,4.688-10.115-1.862c0.457-5.47,8.114-10.414,13.707-11.623
		c5.838-1.602-0.14,6.538,5.88,8.806c2.493,1.285,6.739-0.517,5.646-3.748c-1.814-1.021-3.496,1.129-5.31,0.246
		c-1.94-0.624-2.793-3.387-1.369-4.913c3.073-3.691,21.369-0.572,32.471,11.869c-1.278-7.747,0.022-13.399,6.331-18.068
		c-29.708-15.835-63.131,0.092-62.281,31.301c1.161,25.224,25.824,24.828,36.67,11.388
		C183.855,287.661,177.59,285.655,175.308,280.171z M209.562,246.66c-2.409,2.937-3.977,6.541-4.289,10.343
		c-17.373-13.526-34.297-8.149-36.057-7.995C178.339,242.079,194.408,240.066,209.562,246.66z"/>
	<path d="M193.897,259.97c3.933,3.447,11.011,9.085,5.442,20.806c3.832-4.048,9.604-6.283,15.142-4.871
		C208.266,271.434,205.917,262.33,193.897,259.97z"/>
	<path d="M183.986,263.178c-11.246,3.952-8.046,20.872,3.412,20.872c6.409,0.427,12.055-5.802,11.016-12.139
		C197.855,265.238,190.161,260.595,183.986,263.178z M181.187,276.278c-2.656-7.759,10.226-11.632,12.067-3.238
		C195.463,280.391,183.465,284.397,181.187,276.278z"/>
	<path d="M329.506,263.016c-0.763-0.775-1.754,0.204-1.994,0.955c6.882,7.43,6.866,6.452,8.007,4.865
		C333.909,266.536,331.596,264.848,329.506,263.016z"/>
	<path d="M75.25,277.155c-4.3,4.27-8.463,8.715-11.983,13.671c16.321,25.5-26.603,85.323,11.106,115.721
		C43.361,343.907,119.171,298.848,75.25,277.155z"/>
	<path d="M341.597,277.083c-0.042,0.33-0.132,1.003-0.174,1.333c2.576,3.34,5.183,6.661,7.748,10.013
		c0.655,1.292,2.787-0.234,1.784-1.231c-2.529-3.544-5.16-7.051-8.049-10.307C342.582,276.939,341.927,277.035,341.597,277.083z"/>
	<path d="M59.345,296.195c-18.569,26.025-17.315,65.654-3.117,89.653C45.487,345.437,68.521,313.996,59.345,296.195z"/>
	<path d="M365.779,306.707c-2.216-2.829-4.475-5.622-6.601-8.523c-1.949-2.363-7.011-4.157,4.979,10.037
		C365.04,309.386,366.848,307.62,365.779,306.707z"/>
	<path d="M227.365,303.373c-5.585,4.857-3.788,9.565-23.786,17.383C247.904,321.239,235.652,296.166,227.365,303.373z"/>
	<path d="M386.327,388.876c18.183-23.055-20.183-60.299-36.087-81.112c3.892,7.812,6.657,17.58,1.339,24.417
		c20.766-0.485,34.007,24.261,20.855,41.547C381.793,374.03,389.807,379.412,386.327,388.876z"/>
	<path d="M382.855,324.276c-3.225-2.715-6.247-5.658-9.256-8.607c-0.318,0.006-0.961,0.018-1.279,0.024
		c-0.09,0.312-0.27,0.937-0.361,1.249C383.846,330.63,383.856,325.104,382.855,324.276z"/>
	<path d="M391.787,333.364c15.203,9.432,12.642,3.788,11.635,3.544c-3.892-1.651-7.55-3.778-11.232-5.826
		c-0.258,0.102-0.769,0.306-1.027,0.408C390.766,332.21,391.073,332.997,391.787,333.364z"/>
	<path d="M374.951,332.018c0.141,0.185,0.088,0.12,0.24,0.294C375.131,332.24,375.011,332.09,374.951,332.018z"/>
	<path d="M427.653,345.713c0.138-0.811,0.24-2.078-0.919-2.072c-5.947-1.117-12.275-2.653-12.77-2.529
		C410.561,343.838,425.388,345.71,427.653,345.713z"/>
	<path d="M452.117,347.238c0.558-0.661,0.192-1.922-0.763-1.85c-12.361,0.127-14.052-1.449-13.509,1.562
		C439.902,347.447,450.485,347.988,452.117,347.238z"/>
	<path d="M352.673,367.223c1.76,1.123,4.427-0.199,4.385-2.343c0.384-2.288-2.451-4-4.367-2.787
		C350.781,363.09,350.715,366.237,352.673,367.223z"/>
	<path d="M167.673,384.125c3.164,10.541,35.621,5.211,40.652-21.708C192.482,390.083,162.329,367.809,167.673,384.125z"/>
	<path d="M483.225,375.914c-1.665-3.549-7.338-1.667-6.457,2.222C477.564,383.443,485.911,380.401,483.225,375.914z"/>
	<path d="M207.79,379.932c-0.847-1.321-2.98-2.499-4.223-1.045c2.139-0.51,3.508,1.52,4.877,2.781
		c0.817-0.078,1.64-0.138,2.457-0.228C209.688,381.325,208.457,381.055,207.79,379.932z"/>
	<path d="M209.658,384.352c-0.324,0.121-0.973,0.361-1.297,0.481c-3.051-1.646-3.363-4.476-7.322-2.799
		c1.573,0.061,3.237,0.217,4.366,1.465C206.457,384.556,208.433,385.914,209.658,384.352z"/>
	<path d="M207.232,388.635c-3.686,0.749-2.614-6.931-8.95-2.967C204.197,384.007,204.37,391.517,207.232,388.635z"/>
	<path d="M496.56,390.3c1.994,1.195,4.847-0.271,5.045-2.583c0.546-2.823-2.949-5.016-5.298-3.412
		C494.12,385.614,494.253,389.194,496.56,390.3z"/>
	<path d="M196.252,388.774c6.174-0.428,5.753,6.009,9.136,3.61C201.598,392.866,201.602,384.874,196.252,388.774z"/>
	<path d="M435.412,397.916c2.481,4.613,2.83,11.166-1.333,14.938c-2.468,2.475-6.931,1.814-8.709,5.1
		c-2.198,3.441,0.516,8.589,4.667,8.517c14.335-0.982,23.925-18.248,16.428-32.886C447.409,396.21,438.252,400.942,435.412,397.916z
		 M434.194,416.211c2.138,0.721,4.301,1.4,6.553,1.688C436.354,421.456,431.225,419.877,434.194,416.211z M441.846,416.957
		c-2.115-0.133-4.181-0.691-6.157-1.412c0.691-0.859,1.376-1.724,2.049-2.6c2.445,0.216,4.895,0.174,7.346,0.03
		C444.147,414.392,443.3,416.002,441.846,416.957z M445.696,411.677c-2.367,0.456-4.775,0.582-7.172,0.354
		c-0.048-1.069,0.259-2.102,0.553-3.111c2.775-0.066,5.502-0.655,8.085-1.664C446.765,408.758,446.285,410.235,445.696,411.677z
		 M447.396,405.736c-2.445,1.597-5.49,2.036-8.361,2.126c-0.024-1.045-0.03-2.084-0.042-3.123c3.105-0.174,6.102-1.237,8.673-2.985
		C447.606,403.075,447.618,404.421,447.396,405.736z M447.636,400.397c-2.595,1.982-5.79,3.393-9.112,3.225
		c-0.348-1.225-0.799-2.415-1.255-3.592c3.682,0.084,7.057-1.604,9.82-3.904C447.312,397.544,447.468,398.967,447.636,400.397z"/>
	<path d="M511.612,402.331c1.976,1.141,4.805-0.295,5.003-2.583c0.57-2.829-2.955-5.046-5.298-3.424
		C509.113,397.639,509.281,401.255,511.612,402.331z"/>
	<path d="M418.606,405.118c-0.18-3.929-3.778-7.665-7.85-7.154c-12.745,1.182-8.125,25.373,10.949,28.207
		C411.263,417.401,418.836,412.711,418.606,405.118z"/>
	<path d="M525.042,427.516c14.166,17.509,22.227-5.164,4.247-22.945C537.499,416.788,539.507,431.562,525.042,427.516z"/>
	<path d="M526.826,413.514c1.063-2.769-2.324-5.574-4.877-4.102c-2.037,0.979-2.559,4.031-0.823,5.538
		C522.736,416.818,526.309,415.953,526.826,413.514z"/>
	<path d="M468.147,429.768c-0.168,1.808,2.031,2.012,3.274,2.481c3.37,0.937,5.55,5.16,3.682,8.325
		c-0.811,1.243-0.847,3.706,1.159,3.622c3.646,0.102,4.757-4.079,7.058-6.121c7.514-7.148,18.254-9.689,28.351-10.001
		C508.68,425.599,471.233,421.327,468.147,429.768z"/>
	<path d="M349.171,434.279c1.508-4.481-3.273-9.214-7.73-7.706c-4.289,0.997-6.031,6.871-3.07,10.097
		C341.32,440.406,348.15,439.024,349.171,434.279z M341.387,428.261c3.406-1.622,7.628,2.156,6.247,5.713
		c-0.817,3.129-5.093,4.414-7.496,2.234C337.393,434.147,338.18,429.402,341.387,428.261z"/>
	<path d="M344.685,469.915c-1.635-1.345-12.696-6.573-15.287-24.452C326.434,418.552,296.037,453.308,344.685,469.915z"/>
	<path d="M208.186,446.557c0.349-1.208-1.772-1.592-2.084-0.535c-0.841,4.397-1.345,8.859-1.958,13.298
		c0.607,0.307,1.255,0.493,1.946,0.577C207.111,455.513,207.459,450.996,208.186,446.557z"/>
	<path d="M347.651,456.197c2.247,3.652,8.518,3.021,9.881-1.093c1.88-4-2.33-8.829-6.541-7.568
		C347.255,448.268,345.381,453.134,347.651,456.197z M350.373,449.295c2.991-1.85,7.177,1.49,5.994,4.811
		c-0.66,2.889-4.691,4.216-6.805,2.048C347.298,454.389,347.748,450.46,350.373,449.295z"/>
	<path d="M369.323,498.856c-6.722-7.165-10.549-17.92-27.065-22.741c-6.361-1.97-13.791-2.745-18.38-8.133
		c-2.847-2.962-3.724-7.064-5.37-10.65c0.763,6.757-1.88,13.569-6.158,18.734c-0.943,1.208-2.132,2.535-2,4.181
		c0.558,1.556,2.517,1.249,3.802,1.057c12.787-3.17,25.844-4.954,36.736,2.367c19.893,13.196,28.509,54.104,40.286,60.666
		c1.646,0.985,4.397,0.997,5.19-1.093c2.194-5.536-10.92-31.988,23.54-31.955C402.449,506.361,388.408,520.736,369.323,498.856z"/>
	<path d="M356.277,459.837c-1.862,1.027-1.802,4.18,0.156,5.075c1.652,0.997,4.115-0.06,4.337-2.03
		C361.365,460.444,358.325,458.455,356.277,459.837z"/>
	<path d="M370.465,465.831c-0.52,9.024,13.645,8.758,12.866-0.072C383.254,457.965,370.831,457.489,370.465,465.831z
		 M381.673,466.913c-0.463,3.562-5.25,5.364-7.905,2.901c-2.703-2.091-2.03-6.692,1.057-8.049
		C378.111,459.915,382.489,463.261,381.673,466.913z"/>
	<path d="M401.836,469.994c1.045-1.79-1.495-3.417-2.919-2.168C397.189,471.281,401.156,471.823,401.836,469.994z"/>
	<path d="M201.772,483.274c-0.313,1.339,2.054,1.651,2.09,0.288c0.396-4.114,0.727-8.241,1.105-12.355
		C205.259,470.207,202.189,464.874,201.772,483.274z"/>
	<path d="M246.808,550.943c-4.33-5.008-18.126-17.17-18.164-38.856c-0.5-19.821,8.557-29.632,2.607-31.534
		C225.234,479.368,213.058,526.056,246.808,550.943z"/>
	<path d="M548.347,522.845c-5.261-2.979-8.943-7.922-13.154-12.085c4.707,7.641,14.415,19.263,22.777,22.831
		c15.343,5.739-2.666-26.051-28.183-48.034c0.246,0.498,0.565,0.955,0.961,1.369C560.685,519.951,554.27,526.017,548.347,522.845z"
		/>
	<path d="M415.153,506.652c-11.723-10.341-6.344-16.005-17.587-15.449c-14.125,1.084-20.021,4.019-31.342-4.439
		C386.533,515.921,396.685,502.742,415.153,506.652z"/>
	<path d="M202.925,507.913c0.03-4.024,0.144-8.055,0.228-12.079c0.336-1.002-3.352-6.359-2.39,12.481
		C201.015,509.577,203.075,509.21,202.925,507.913z"/>
	<path d="M257.085,497.618c-0.881-6.472-13.128-3.238-12.452,20.41C248.044,506.75,258.487,505.201,257.085,497.618z"/>
	<path d="M265.969,525.206c8.208-2.865,12.892-14.556,6.829-25.888c0.249,3.299,1.412,8.548-10.391,15.142
		C255.562,518.305,259.432,527.695,265.969,525.206z"/>
	<path d="M506.578,521.62c-5.001,10.762-14.02,5.381-16.055-1.598c-0.558,1.262-1.339,2.391-2.204,3.46
		c28.414,18.62,44.235,46.877,73.111,39.937c-16.801-13.659-29.763-32.333-35.619-53.254c-0.613,5.965,1.394,12.692-1.952,18.176
		C520.282,533.746,509.997,533.493,506.578,521.62z"/>
	<path d="M274.486,548.463c38.215,0.811,31.59-37.173,65.976-11.082c-5.61-8.776-12.265-17.461-21.527-22.615
		C295.868,501.889,301.157,541.232,274.486,548.463z"/>
	<path d="M432.337,514.088c41.155,3.348,54.993,44.555,84.692,61.177c22.928,12.549,44.283,5.317,46.382,3.117
		C512.448,592.776,492.343,511.326,432.337,514.088z"/>
	<path d="M564.54,571.138c-4.787,0.268-15.773,4.483-35.048-9.052c-21.286-15.047-41.452-41.284-69.459-46.244
		C508.544,533.529,525.218,588.212,564.54,571.138z"/>
	<path d="M203.646,532.539c-0.711-14.098,0.036-13.317-2.553-13.298c-0.469,4.481,0.174,9.034,0.409,13.526
		C201.418,534.167,204.078,533.932,203.646,532.539z"/>
	<path d="M337.519,540.769c-15.828-15.384-26.582,0.065-30.603,2.997c-4.571,3.538-10.193,5.37-15.815,6.403
		c2.036,0.487,4.163,0.427,6.217,0.859c24.038,4.112,21.105,27.044,47.433,29.336C311.299,568.483,316.67,534.165,337.519,540.769z"
		/>
	<path d="M204.601,543.952c-0.433-0.018-1.304-0.054-1.736-0.072c-0.471,2.016,1.171,12.047,1.532,13.725
		c0.36,1.153,2.324,0.618,2.042-0.559C205.838,552.679,205.274,548.307,204.601,543.952z"/>
	<path d="M339.483,546.054c-2.512-3.391-10.21-3.306-11.352,6.763c-0.967,11.028,7.328,22.302,18.44,23.9
		c-2.926-1.459-5.989-2.949-7.977-5.664c-3.634-4.577-3.904-11.377-0.973-16.368C338.201,553.685,342.346,549.329,339.483,546.054z"
		/>
	<path d="M250.064,577.12c3.961-3.061,3.987-21.853,23.305-28.327c-4.278,0.009-19.812,2.362-28.561,11.022
		C233.804,571.193,243.797,581.62,250.064,577.12z"/>
	<path d="M569.868,576.424c-3.594,14.968-33.042,23.627-72.042,11.43c3.121,2.178,20.174,8.992,44.526,8.745
		c16.454,0.066,34.917-5.064,58.888,10.343c-4.099-24.609-22.759-36.05-37.168-47.277
		C564.739,561.189,571.997,568.242,569.868,576.424z"/>
	<path d="M449.564,562.182c-11.816-9.438-21.093,28.13,47.734,39.156C458.057,588.988,456.608,567.515,449.564,562.182z"/>
	<path d="M360.145,569.33c-1.854-2.716-7.693-1.393-6.949,5.196c0.768,5.99-3.772,8.827-9.803,9.298
		C355.427,586.164,363.794,575.314,360.145,569.33z"/>
	<path d="M206.589,569.119c0.696,4.439,1.88,8.812,3.081,13.142c3.251,0.072,1.932,0.288-0.931-13.154
		C208.721,567.834,206.307,567.822,206.589,569.119z"/>
	<path d="M336.377,592.827c-4.456-1.225-8.307-3.82-12.102-6.337c2.324,4.217,3.321,9.004,3.874,13.737
		c6.667-0.967,13.683,0.282,19.533,3.652c14.836,8.834,12.786,20.621,16.908,24.627c12.422,9.407,21.404-16.208,2.817-44.196
		C359.826,592.767,347.207,596.119,336.377,592.827z M369.365,624.559c-6.04-0.423-2.755-14.269-17.503-22.356
		C372.681,605.801,375.856,624.754,369.365,624.559z M371.978,606.901c-1.135,1.663-3.232,0.312-4.433-0.559
		c-5.454-4.415-12.313-6.835-19.257-7.472C363.291,596.369,372.971,601.759,371.978,606.901z"/>
	<path d="M486.366,587.511c-0.078-0.054-0.234-0.168-0.312-0.222C486.132,587.343,486.288,587.457,486.366,587.511z"/>
	<path d="M212.896,593.085c1.291,4.283,2.793,8.512,4.487,12.655c0.427-0.03,1.28-0.078,1.706-0.102
		c0.266-1.401-3.764-12.124-4.163-13.124C214.566,591.397,212.71,591.968,212.896,593.085z"/>
	<path d="M338.107,627.382c7.018,0.741,11.684-6.847,5.544-12.187c-10.362-8.144-28.618-1.787-28.519,15.19
		c0.15,6.253,3.237,12.458,8.325,16.14C318.796,636.434,327.117,626.504,338.107,627.382z"/>
	<path d="M222.368,614.949c-0.132,0.252-0.403,0.745-0.534,0.997c1.412,4.043,3.634,7.773,5.52,11.617
		c0.426,1.327,2.727,0.582,2.096-0.781C223.467,615.263,224.117,614.508,222.368,614.949z"/>
	<path d="M644.037,617.153c-0.012-1.85-2.078-2.931-3.694-2.264c-1.88,0.817-1.952,3.772-0.12,4.661
		C641.857,620.601,644.283,619.105,644.037,617.153z"/>
	<path d="M648.86,628.788c-2.078,1.34-1.898,4.895,0.391,5.928c2.138,1.214,5.243-0.564,4.979-3.093
		C654.494,628.926,650.95,627.184,648.86,628.788z"/>
	<path d="M233.257,637.689c1.592,3.49,4.001,6.553,6.037,9.803c0.607,0.913,1.364,2.481,2.697,1.592
		c0.048-0.318,0.156-0.955,0.204-1.273C234.909,636.576,234.908,635.214,233.257,637.689z"/>
	<path d="M367.906,685.97c1.862,1.61,0.949,4.553-0.529,6.127c-4.517,4.547-11.341,4.992-17.239,6.247
		c19.52,2.145,40.45-9.445,47.007-29.096c-32.576,20.858-82.86,10.015-103.282-29.822c0.043,4.217,21.163,43.487,67.105,45.204
		C363.299,684.793,365.894,684.534,367.906,685.97z"/>
	<path d="M789.905,714.549c1.406,0.342,2.835,0.607,4.283,0.841c19.686-22.81,17.561-57.36-10.902-75.976
		C812.638,665.084,808.057,695.306,789.905,714.549z"/>
	<path d="M402.431,662.773c-1.306,21.751-22.074,41.664-54.809,40.37c-0.282-0.115-0.841-0.355-1.123-0.475
		c0.12,0.145,0.36,0.427,0.48,0.565c48.91,9.443,67.999-31.042,69.255-47.542c-9.903-3.51-10.141-11.151-10.553-15.671
		c-1.241,9.813-8.457,20.449-23.246,27.456C389.277,667.302,396.629,666.791,402.431,662.773z"/>
	<path d="M754.912,952.407c-0.128,0.053-0.329,0.136-0.517,0.213C754.547,952.623,754.703,952.537,754.912,952.407z"/>
	<path d="M494.096,688.169c-9.901-1.442-8.912-13.976-13.647-12.692c-2.843,1.513-4.249,10.374-11.316,5.995
		c-7.669-4.693-8.006-13.008-12.704-13.443c-3.162,0.554-7.591,21.627-24.398-12.518
		C428.955,706.948,471.717,717.953,494.096,688.169z M479.273,685.16c3.866-0.404,6.424,5.465,0.979,9.352
		c-14.259,8.909-31.748,0.159-41.043-15.425C465.476,700.393,473.296,685.3,479.273,685.16z"/>
	<path d="M730.987,655.901c-7.948,0.93-11.15,15.286-38.982,0.39C730.422,685.419,744.97,653.389,730.987,655.901z"/>
	<path d="M249.794,658.082c-0.659-1.207-7.522-3.943,5.67,10.416c0.793,1.105,2.661-0.565,1.616-1.46
		C254.671,664.04,252.107,661.157,249.794,658.082z"/>
	<path d="M633.243,670.353c2.132-1.502,2.096-4.853-0.102-6.271C626.302,662.572,626.058,671.769,633.243,670.353z"/>
	<path d="M685.512,670.936c-1.886,1.351-1.73,4.679,0.36,5.766c2.169,1.292,5.466-0.384,5.148-3.057
		C691.23,670.87,687.584,669.284,685.512,670.936z"/>
	<path d="M273.891,684.553c-3.106-2.871-6.007-5.971-9.058-8.884c-0.312,0.078-0.949,0.234-1.267,0.312
		c-0.558,1.442,0.835,2.343,1.688,3.25c2.523,2.379,4.787,5.04,7.496,7.214C273.969,687.298,274.954,685.28,273.891,684.553z"/>
	<path d="M699.405,679.435c-2.565,0.943-2.757,5.057-0.277,6.199c2.103,1.298,5.256-0.432,5.106-2.949
		C704.457,680.21,701.591,678.384,699.405,679.435z"/>
	<path d="M640.433,680.095c-2.102-1.111-5.172-0.078-5.436,2.475c-0.6,3.028,3.256,5.148,5.64,3.291c0,0,0,0.001,0,0.001
		C642.379,684.319,642.157,681.556,640.433,680.095C640.433,680.096,640.433,680.095,640.433,680.095z"/>
	<path d="M761.771,681.681c-2.835,0.625-3.394,5.034-0.768,6.301c2.072,1.43,5.393-0.39,5.099-2.955
		C766.354,682.762,763.849,681.014,761.771,681.681z"/>
	<path d="M714.307,687.129c-2.156,1.244-2.096,4.848,0.15,5.971c2.235,1.309,5.484-0.577,5.094-3.244
		C719.647,687.267,716.367,685.784,714.307,687.129z"/>
	<path d="M746.112,689.382c-2.505,1.285-2.079,5.496,0.654,6.223c2.571,1.069,5.442-1.844,4.367-4.391
		C750.539,689.148,747.884,688.271,746.112,689.382z"/>
	<path d="M729.984,690.739c-1.958,1.364-1.814,4.691,0.342,5.808c2.133,1.34,5.394-0.438,5.142-3.033
		C735.666,690.733,732.086,689.117,729.984,690.739z"/>
	<path d="M837.795,722.375c2.258,0.715,3.075,3.07,4.133,4.943c10.798-9.255,19.628-20.92,25.16-34.043
		c0.029,0.005,0.064,0.01,0.092,0.016c3.988-9.49,6.379-19.641,6.871-29.924c0,0-0.001,0-0.001,0
		c1.116-37.512-22.53-63.619-29.462-69.02c19.392,21.285,26.968,45.034,25.197,67.724c0,0,0.001,0,0.001,0
		c-0.853,10.318-3.592,20.475-8.078,29.809c0.712,0.407,0.943,0.54-0.001,0C856.109,703.635,847.874,714.134,837.795,722.375z
		 M863.126,692.496c-0.206-0.067-0.409-0.144-0.609-0.227C862.718,692.352,862.921,692.429,863.126,692.496z M866.967,693.254
		c-0.48-0.075-0.964-0.145-1.446-0.221C866.068,693.117,866.559,693.183,866.967,693.254z M865.215,692.983
		c-0.109-0.018-0.217-0.037-0.326-0.057C864.999,692.946,865.108,692.966,865.215,692.983z M864.507,692.853
		c-0.134-0.027-0.268-0.057-0.401-0.088C864.24,692.797,864.374,692.826,864.507,692.853z M863.832,692.7
		c-0.182-0.046-0.361-0.098-0.54-0.153C863.472,692.602,863.652,692.654,863.832,692.7z"/>
	<path d="M292.722,700.872c-3.286-2.715-6.565-5.454-9.887-8.121c-0.306,0.024-0.931,0.072-1.237,0.096
		c-0.078,0.301-0.234,0.907-0.312,1.208c3.045,3.141,6.613,5.79,10.061,8.493C292.296,703.485,293.851,701.605,292.722,700.872z"/>
	<path d="M642.271,697.334c-2.433,0.769-3.111,4.361-1.033,5.899c1.964,1.994,5.868,0.198,5.52-2.619
		C647.004,698.265,644.397,696.547,642.271,697.334z"/>
	<path d="M311.691,717.276c1.081,0.264,1.85-1.339,0.919-1.928c-2.896-2.121-5.929-4.043-8.8-6.199
		c-0.829-0.546-1.658-1.465-2.751-1.069c-0.679,0.703-0.432,1.706,0.397,2.168C304.838,712.633,308.135,715.162,311.691,717.276z"/>
	<path d="M664.603,712.459c-1.49,0.619-2.991,1.207-4.511,1.754c0.127,0.738,0.259,1.495,0.402,2.258
		c1.736-0.618,3.46-1.291,5.154-2.042C665.294,713.762,664.945,713.108,664.603,712.459z"/>
	<path d="M648.139,713.96L648.139,713.96c-2.36-0.997-5.339,0.841-5.027,3.502c0.12,2.445,2.901,3.778,5.057,2.907
		c0.153-9.084,0.133-7.697,0,0C650.566,718.951,650.542,715.353,648.139,713.96z"/>
	<path d="M757.326,729.902L757.326,729.902c-70.299,6.579-122.439-105.443-124.725-106.682
		c73.205,144.484,114.604,141.703,105.18,118.863c7.971,3.136,16.194,5.689,24.663,7.046c0,0,0-0.001,0-0.001
		c16.789,2.805,34.315,1.298,50.28-4.655c0,0,0,0.001,0,0.001c10.65-3.929,20.567-9.797,29.204-17.155
		c-1.058-1.874-1.875-4.228-4.133-4.943c-8.493,7.099-18.38,12.439-28.824,16.037c0,0,0-0.001-0.001-0.001
		c-16.458,5.496-34.364,6.073-51.26,2.289c0,0,0,0.001,0,0.001c-9.473-2.169-18.699-5.454-27.354-9.869
		c9.292,2.883,19.142,4.438,28.861,3.147v0c13.431-1.586,26.14-8.349,34.97-18.59c-2.53-0.409-3.337-0.631-4.337-0.853
		C781.238,723.258,769.525,728.742,757.326,729.902z M730.813,738.834c0.273,3.085-3.119,8.231-16.71-1.418
		c-9.832-7.45-28.372-27.269-28.873-32.183c1.796,0.492,2.829,2.132,4.138,3.328C701.507,720.688,715.334,731.32,730.813,738.834z"
		/>
	<path d="M333.644,728.484c-1-0.652-10.852-6.969-12.133-6.613c-1.319,1.403-0.138,2.227,10.655,8.259
		C333.151,731.067,334.629,729.307,333.644,728.484z"/>
	<path d="M650.086,731.079c-7.251-2.931-7.439,8.55-0.042,5.838C651.846,735.452,651.906,732.551,650.086,731.079z"/>
	<path d="M355.58,740.365c-4.018-2.15-8.061-4.235-12.079-6.379c-1.105,0.295-1.513,1.977-0.264,2.379
		C354.169,742.198,355.63,743.549,355.58,740.365z"/>
	<path d="M650.842,752.306c0.265-2.535-3.033-4.192-5.057-2.853c-2.475,1.225-2.114,5.255,0.42,6.193
		C648.349,756.667,651.196,754.691,650.842,752.306z"/>
	<path d="M535.758,797.337c-9.238,47.108,95.388,27.226,109.487,124.875c8.565,49.897,50.043,4.436-31.024-65.771
		c-20.164-16.734-31.343-37.586-11.875-55.284c-31.904,9.31-56.068-19.653-46.28-49.482
		C546.038,768.543,536.943,790.538,535.758,797.337z"/>
	<path d="M641.941,770.95c0.258,2.427,3.057,3.544,5.147,2.631c2.313-1.472,2.199-4.955-0.126-6.349
		C644.506,766.205,641.436,768.199,641.941,770.95z"/>
	<path d="M502.95,785.138c-2.457,1.129-2.583,5.027-0.234,6.36c2.258,1.484,5.736-0.324,5.556-3.105
		C508.476,785.721,505.232,783.805,502.95,785.138z"/>
	<path d="M374.075,789.366c2.186-0.871,0.426-4.372-1.55-3.171C370.458,787.09,372.062,790.465,374.075,789.366z"/>
	<path d="M380.099,793.744c-0.414-1.057-2.12-1.279-2.787-0.378c-0.997,0.853-0.475,3.058,1.039,2.943
		C379.727,796.693,380.844,794.843,380.099,793.744z"/>
	<path d="M384.285,803.878c2.079-1.279-0.348-4.493-2.192-2.835C380.465,802.406,382.483,805.175,384.285,803.878z"/>
	<path d="M694.838,854.129c0.008,0.023,0.018,0.042,0.026,0.065c2.937,0.565,5.436,2.511,8.445,2.793
		c2.457,0.192,4.799-1.85,4.541-4.385c3.566,1.744,36.451,42.407-11.839,27.678c4.159,2.84,30.248,16.441,38.658,10.319
		c11.777-9.219-32.682-51.105-56.975-65.787c-0.021-0.083-0.041-0.154-0.063-0.242c-19.247-11.888-57.653-30.385-68.961-11.363
		c-11.644,22.866,31.615,38.238,50.064,77.25c0.04-3.578-7.133-16.753-17.605-30.327c-7.083-8.769-4.372-12.245-0.318-10.439
		c10.399,4.354,18.61,22.224,29.456,16.073C677.93,861.442,682.466,851.466,694.838,854.129z M678.341,827.542
		c-0.002-0.04-0.004-0.081-0.008-0.122C678.337,827.46,678.339,827.501,678.341,827.542z M678.329,827.906
		c-0.002,0.019-0.003,0.038-0.005,0.058C678.327,827.945,678.327,827.925,678.329,827.906z M678.259,826.929
		c0.018,0.082,0.031,0.165,0.044,0.248C678.289,827.096,678.277,827.016,678.259,826.929z M678.219,826.762
		c-0.015-0.063-0.031-0.127-0.048-0.194C678.189,826.632,678.203,826.697,678.219,826.762z M655.84,828.625
		c-3.505-3.848-11.255-5.722-12.74-1.514c-0.642,2.156-0.901,4.487-2.156,6.427c-2.433,4.246-8.253,5.766-12.65,3.904
		c-20.533-7.885-3.923-41.772,49.926-9.034c0,0,0-0.001,0-0.001c9.286,5.683,17.948,12.362,25.81,19.894
		c-3.808-1.483-7.977-0.642-11.701,0.655c0.553,1.008,0.563,1.028,0,0.001c-3.778,1.435-7.484,3.141-11.478,3.886
		C662.415,856.442,663.979,837.394,655.84,828.625z M694.424,853.094c-0.036-0.084-0.065-0.171-0.102-0.255
		C694.358,852.92,694.39,853.012,694.424,853.094z M694.041,852.239c-0.115-0.243-0.225-0.488-0.346-0.728
		C693.816,851.751,693.927,851.997,694.041,852.239z M693.498,851.133c-0.156-0.301-0.311-0.602-0.472-0.9
		C693.193,850.541,693.346,850.838,693.498,851.133z"/>
	<path d="M385.751,809.554c-0.847,0.667-0.679,2.433,0.432,2.787c1.202,0.709,2.907-0.444,2.565-1.85
		C388.616,809.103,386.604,808.485,385.751,809.554z"/>
	<path d="M895.254,1633.215c-0.528-1.001-92.837-143.885-89.96-150.319c1.995,0.576,2.901,2.666,4.271,4.066
		c13.528,15.114,23.59,15.156,20.758-3.538c-3.863-22.57-94.017-188.442-100.056-375.839c-0.236,1.099-0.387,2.206-0.488,3.319
		c0.068-48.974-23.203-77.3-23.629-84.443c4.808,0.94,24.988,30.02,40.244,88.152c-7.252-61.892-31.79-196.389-73.718-241.582
		c53.846,82.597,20.597,130.681-9.31,102.958c16.014-1.404,21.253-46.494-0.739-78.385c19.02,56.412,1.684,67.261-9.256,58.984
		c-26.056-19.042-3.056-83.797-71.592-105.721c8.644,4.336,18.026,8.361,24.115,16.247c13.566,16.174,5.67,35.513,9.082,40.766
		c2.709,4.037,9.719,3.322,11.587-1.201c2.445-5.4,0.144-11.424-1.183-16.824c12.409,24.672,3.471,46.266-25.996,23.942
		c0,0,0.001,0,0.001,0c-0.499-0.366-0.985-0.721-1.472-1.069c9.873,48.014-18.775,53.793-31.45,13.593
		c1.728,12.402-4.833-25.869-7.796-42.677c-0.653-0.844-1.274-1.71-1.909-2.567c40.57,54.117,50.564,10.371,22.896-31.466
		c22.276,62.025-15.397,55.057-57.512-37.348c2.9,28.791-28.954,25.206-58.473-19.683c7.172,8.607,17.191,15.01,28.411,16.554
		c-3.268-1.484-6.758-2.493-9.797-4.451c-15.993-9.405-19.259-27.847-9.821-42.388c1.177-1.874,2.667-3.514,3.958-5.298
		c-30.82,17.002-38.91-14.952-46.989-49.356c-0.495,0.476-0.496,0.476-0.001-0.001c-0.871-3.718-1.712-7.442-2.433-11.184
		c-0.7-3.366,2.258-6.287,5.16-1.123c33.08,64.394,62.866,34.433,86.037,55.921c15.41,14.126,12.943,38.688-2.733,48.25
		c9.454-12.74,0.845-28.605-15.257-27.468c4.801-11.867-10.173-22.994-20.53-8.469c-14.835,20.583,4.972,49.113,30.537,40.772
		c21.678-6.292,29.979-33.74,12.992-52.707c-3.904-4.728-12.5-8.264-11.172-14.079c1.492-5.704,7.764-5.712,17.521-19.713
		c4.635-6.339,11.725-13.795,18.23-9.394c8.59,5.597,7.288,18.43,20.038,26.242c6.025,3.808,14.007,4.031,20.284,0.679c0,0,0,0,0,0
		c8.409-4.415,13.562-13.917,13.273-23.329c0.291-4.938-3.604-14.937,0.481-16.488c13.312,0.151,39.211,94.573-6.649,96.098
		c-20.546,0.506-30.913-19.662-23.425-30.369c3.034-3.628,9.07-2.787,11.743,0.859c6.652,10.158,19.377-6.672,1.544-10.307
		c-14.911-3.182-24.668,18.904-11.989,32.766c8.366,9.288,23.578,12.316,34.988,5.357c-0.713,0.472-1.459,0.937-2.258,1.387
		c21.489-6.556,36.63-4.526,55.578,14.422c-0.267-0.432-0.501-0.836-0.747-1.25c15.759,21.926,62.247,28.003,84.447,81.397
		c8.791,21.842,5.58,39.585-15.197,23.035c-21.561-16.916-42.112-28.253-51.746-32.117c54.425,39.747,89.303,87.173,96.939,159.821
		c5.491-55.411-6.146-128.159-40.117-174.207c-18.34-24.676-42.44-33.592-52.064-52.191c10.384,4.266,20.135-3.963,19.347-13.437
		c-3.771-54.229-73.02-151.447-75.268-153.899c41.01,71.837,30.385,107.631,28.128,133.319c0.026-0.615,0.052-1.227,0.079-1.878
		c-5.568,18.829-32.989,15.201-33.048-4.991c-0.07,0.178-0.14,0.367-0.209,0.55c11.045-39.934-27.589-110.544-22.809-60.315
		c1.136,9.778-4.06,20.224-13.16,24.356c0,0,0,0,0,0c-12.812,5.862-23.96-3.984-29.563-18.037
		c-5.476-11.801-13.524-14.675-24.266-4.955c5.371-11.557,3.905-20.217-0.507-25.453c8.314-8.392,7.237,10.339,16.213,13.243
		c5.672,1.552,10.565-13.815,14.662,0.751c7.558,28.182,18.017,29.845,23.149,22.783c8.793-11.845,3.134-26.955,10.487-36.97
		c-3.177-0.21-6.301-0.937-9.484-0.943c-0.491,19.318-7.698,27.183-18.098,12.301c-15.138-22.707-6.932-26.383-13.815-54.978
		c-0.51,0.252-1.525,0.763-2.036,1.015c5.186,30.259-2.883,50.027-18.464,25.257c-1.051-1.502-0.865-3.4-1.177-5.112
		c-5.464-36.635-24.497-49.255-1.538-48.611c0,0,0,0,0,0c14.849,0.518,17.637,9.683,21.179,28.465
		c0.51-0.252,1.525-0.763,2.036-1.015c-0.919-4.361-2.571-8.517-3.538-12.848c-2.287-12.453,7.713-14.133,14.548-10.403
		c13.825,7.9,20.818,50.001,20.903,65.927c3.183,0.006,6.307,0.733,9.484,0.943c11.282-12.057,35.159,24.017,37.397,87.431
		c11.188-32.226,4.481-99.279-33.618-136.528c3.166,5.983,7.16,11.623,9.088,18.188c3.406,11.42,0.609,20.272-4.865,22.134
		c-12.778,4.988-19.926-27.37-26.759-44.088c-2.966-9.682,0.35-11.513,4.697-9.881c26.09,9.824,37.7,30.553,42.478,38.436
		c-18.517-39.807-51.045-47.945-94.332-49.68c1.413,3.187,1.498,3.381-0.001,0c-28.663-0.997-57.717-0.319-85.809-7.022
		c-35.403-8.251-54.873-25.077-59.428-27.912c1.898,1.874,4.085,3.442,5.849,5.462c9.598,10.383,10.398,29.447,8.83,36.458
		c0,0,0,0,0,0c-1.524,3.35-3.092,4.261-5.957-0.618c0,0,0,0,0,0c-13.684-31.242-52.645-121.037-86.272-117.235
		c35.287-17.366,46.727,62.937,116.731,90.164c21.539,8.524,44.706,11.701,67.645,13.575c-2.397-1.018-21.672-3.187-46.116-16.838
		c0.246,0.108,0.492,0.219,0.737,0.32c-23.776-17.319-5.812-38.625-6.373-43.241c-0.377-6.163-8.284-8.528-11.647-3.286
		c-8.278,11.361-15.265,1.59-13.148-3.874c2.172-6.906,14-11.222,23.918-4.403c-3.189-3.688-7.141-6.655-11.352-9.07
		c0.318,0.943,0.985,2.192,0.042,3.021c-1.961,1.783-7.907,4.364-8.986,2.006c0.09-2.493,4.555-2.024,2.973-7.845
		c-3.064-1.088-6.325-1.615-9.563-1.343c3.238-0.272,6.5,0.255,9.564,1.343c29.123,10.156,28.132,42.348,57.164,65.135
		c44.104,35.283,80.037,3.015,118.04,27.93c0.58-1.753-1.294-3.059-1.421-4.766c0.129,1.708,2.002,3.014,1.421,4.766
		c9.7,6.313,17.371,15.268,23.329,25.107c0.695-23.366-11.151-43.079-25.858-61.098c11.477,6.825,23.745-1.894,21.719-13.899
		c-1.802-3.772-3.538-7.58-5.34-11.352c3.611,11.762-6.072,20.495-15.809,19.155c-8.094-0.992-11.735-6.64-16.903-11.47
		c6.032,1.779,12.347,2.191,18.855,0.748c-1.751-3.966-3.823-8.157-6.159-12.484c7.773,6.331,12.771,6.271,15.818-3.319
		c0.288,0.162,0.871,0.481,1.165,0.643c-1.814-4.181-3.622-8.355-5.478-12.506c3.501,13.633-6.052,13.508-9.568,11.455
		c-3.616-2.084-6.283-5.394-8.962-8.511c0.32,0.592,0.656,1.176,0.986,1.763c-7.569-12.351-17.09-25.347-28.112-37.497
		c0,0,0,0,0.001,0c4.985,5.496,9.802,11.16,14.252,17.106c13.575,6.038,13.836-20.21,14.56-21.617
		c0.559,0.469,1.111,0.949,1.658,1.454c-19.166-44.464,30.764,85.558,77.491,143.794c-3.966-4.57-6.854-8.059-6.854-8.059
		c0.517,1.958,1.49,4.115,0.613,6.127c-5.368,13.17-29.015-36.615-32.393-41.649c30.236,66.999,87.639,136.776,147.207,93.773h0
		c5.886-4.324,11.49-9.19,16.019-14.95c-5.88,4.937-12.067,9.544-18.812,13.244l0,0c-61.967,34.409-118.967-39.83-82.013-23.432
		c12.814,10.988,26.32,18.392,40.165,19.954c0,0,0,0.001,0.001,0.001c9.995,1.147,20.788-0.919,28.723-7.388
		c13.168-11.14,5.976-22.599-2.379-21.233c-13.055,1.55-6.773,20.167-32.05,18.975c0,0,0-0.001,0-0.001
		c-38.571-2.665-69.323-49.235-88.662-84.385c-48.718-88.091-61.63-191.675-142.877-226.872
		c-47.045-21.097-88.24-5.39-122.393-42.332h0c-16.302-19.866-27.91-42.129-50.497-61.024c0.283,0.231,0.566,0.461,0.849,0.693
		c-12.849-15.997-9.141-32.747,1.562-39.054c12.009-7.434,28.661,0.593,26.525,11.286c-0.738,4.289-4.444,7.664-8.679,8.373
		c-2.871,0.727-6.054-0.703-8.727,0.925c-7.302,3.559-3.966,15.781,5.064,14.103c21.66-2.046,24.76-36.683-4.175-39.817
		c3.533-7.067-1.64-9.053-3.634-9.154c-7.162-0.746-11.535,8.646-14.019,15.082c-10.537,24.517-30.069,8.828-10.367-7.965
		c44.794-41.677,25.976-77.2,2.799-74.853c-12.25,0.432-16.668,13.318-11.089,21.475c3.373,5.111,10.703,1.954,10.181-3.274
		c0.024-2.877-2.895-4.318-3.778-6.823c-5.108-11.401,14.376-15.577,24.056-0.643c6.803,10.379,4.357,24.82-1.177,35.877
		c1.891-11.346-8.148-19.229-8.986-8.061c-0.168,3.448,0.066,6.991-0.937,10.343c-0.815-8.77-7.013-18.036-16.085-17.719
		c-12.429,0.077-17.651,16.302-7.845,16.302c2.919,0.355,5.484-1.982,5.922-4.793c0.847-4.373,5.67-7.833,10.049-6.109
		c15.537,7.513,5.239,44.453-36.49,52.431c-1.233,0.666-2.544,1.116-3.888,1.461c10.288-2.701,12.291-14.597,3.315-13.179
		c1.231-0.787,2.427-1.628,3.586-2.517c-1.111-0.553-2.313-0.835-3.532-0.967c-20.786,18.164-45.181,9.035-44.082,3.826
		c1.291-3.07,4.919-3.73,7.508-5.31c8.932-4.704,15.653-12.416,22.224-19.87l-0.001,0c17.807-20.294,23.422-34.426,26.098-26.873
		c4.319,12.848-31.486,41.735-42.905,50.256c3.426-1.865,20.422-13.588,32.82-25.402c5.536-5.43,20.831,4.524-36.904,31.78
		c19.504-7.355,37.042-17.971,37.042-17.971c1.854-0.242,5.396,2.939-1.802,9.562c1.219,0.132,2.421,0.414,3.532,0.967
		c8.037-6.138,10.606-12.986,0.559-12.86c11.934-9.201,15.833-19.23,2.847-16.716c18.553-20.852,14.02-30.244,1.754-23.726
		c20.19-39.11-13.64-39.767-18.993-17.261c-3.195,12.599,4.854,31.972-9.112,45.355c0,0,0.001,0,0.001,0
		c-8.886,8.309-22.621,7.208-31.917-4.149c2.94-9.087-1.538-19.776-10.604-23.578c-9.81-3.713-16.469,9.919-8.337,15.455
		c13.671,9.014-3.335,27.806-14.974,10.175c0,0,0,0,0,0c-12.603-24.281,1.771-136.204-67.057-136.204
		c-10.679,1.081-21.215,5.766-28.299,13.98c-14.762,16.279-3.441,39.616,14.902,42.142c10.03,0.859,14.715-12.246,6.998-18.182
		c-4.46-3.918-16.117-0.495-20.164-12.043c-8.877-23.033,54.553-45.074,66.48,10.085c8.668,39.354-15.492,91.398,5.892,116.19
		c1.64,2.258,4.066,4.613,3.772,7.622c-1.936,3.65-7.861,0.861-28.423,3.117c19.797,5.387,15.164,40.692-4.487,46.587
		c-9.329,2.991-18.583-5.564-13.286-12.512c1.862-2.691,5.622-3.886,8.679-2.661c2.072,0.733,3.417,2.973,5.766,3.015
		c6.362,0.38,3.694-10.713-4.883-11.358c-12.914-1.863-19.24,16.788-6.649,24.392c6.72,4.586,13.195,0.775,20.032,16.182
		c-6.639-51.008,85.787-95.385,119.391,4.733c2.798,8.193,4.873,22.604,15.058,24.134c6.327,1.241,12.669-4.061,9.478-12.091
		c-3.933-9.684-12.521-10.86-19.99-16.59c-16.682-12.47-13.097-28.042-6.012-34.802c9.296-9.131,18.515-2.882,20.49-2.208
		c-23.68-2.726-29.171,18.206-17.008,31.121c7.86,8.518,19.104,9.561,25.113,21.053c9.287,18.253-19.642,29.323-28.537-2.198
		c-8.333-30.591-23.784-60.137-55.236-64.204c44.421,10.597,46.929,60.219,56.726,88.215c0.756,2.252-2.839,6.33-5.813,0.893
		c-6.06-22.402-9.837-54.185-29.23-72.296c-16.397-15.635-44.085-17.347-61.002-7.784c-28.459,15.871-27.819,60.991,4.32,75.884
		c23.562,11.235,49.139-2.219,54.515-16.807c-0.23,0.74-0.485,1.473-0.788,2.188c8.52-6.485,16.754,1.696,14.734,8.655
		c-1.399,4.343-4.36,7.923-6.913,11.629c-7.499,11.296,8.195,22.905,13.118,32.627c5.605,10.645-8.314,20.611-15.437,13.587
		c-3.171-3.015-2.733-8.673,0.799-11.22c1.874-1.693,4.577-1.231,6.757-2.186c3.585-1.536,2.532-8.337-5.856-7.346
		c-9.677,1.606-12.46,14.637-4.973,21.041c7.097,6.214,18.332,2.807,21.437-1.946c6.319-9.268-7.001-19.751-8.307-28.417
		c-2.374-9.429,8.271-17.245,14.019-3.832c-0.526-17.24,0.352,29.416,17.112,56.64c7.423,13.263-1.783,12.848-17.161,15.269
		c0,0,0.001,0.001,0.001,0.002c-5.672,0.542-7.466,1.688-11.599,1.665c-5.901,2.537-7.097,1.701-14.194,5.88
		c-1.994,1.123-3.472,3.003-5.622,3.88c-1.889,4.448-4.494,5.593-5.658,15.821c-6.271-10.151-32.134-12.859-18.446-26.146
		c-0.27,0.103-0.28,0.105,0-0.001c3.954-2.467,9.606-7.35,10.968-3.97c1.255,2.499,1.213,6.024,3.994,7.478
		c2.315,0.96,11.595-0.419,9.142,6.817c2.15-0.877,3.628-2.757,5.622-3.88c1.652-0.973,3.358-1.85,5.082-2.703
		c-12.08,2.954-19.979-8.137-16.278-15.01c3.853-7.542,31.845-10.785,30.417,4.727c-0.15,3.112-2.48,5.58-5.027,7.106
		c3.117,0.018,6.133-0.823,9.154-1.478c-4.529-1.976-1.322-9.845,3.159-9.112c3.057,0.757,4.325,4.307,7.31,5.214
		c3.943,1.251,3.734-8.657-5.009-11.869c-13.824-5.354-25.979,0.797-32.723-5.039c-4.005-3.526-1.196-9.369,6.535-8.211
		c5.235,0.572,17.054,8.612,21.485,1.58c1.459-1.947,0.901-5.472-1.736-6.049c-3.075-0.75-5.592,1.73-8.445,2.373
		c-11.659,3.379-23.889-6.081-23.245-18.482c0.091-4.208,2.167-5.948,1.177-14.362c0.248,2.701-0.237,5.426-1.311,7.896
		c4.417-10.843-1.613-26.505-27.045-24.661c-24.323,1.26-41.121-7.222-51.68-40.934c-4.181-16.315-22.578-14.669-17.977-8.446
		c1.466,1.952,3.7,3.105,5.46,4.751c26.102,22.132,23.669,52.342,27.972,57.957c6.028,8.228,21.765,5.713,31.276,0.877
		c4.341-2.066,18.293-10.969,23.918-0.811c3.092,5.203,0.749,17.308-15.227,12.86c-6.691-2.048-13.28-5.52-20.476-4.865
		c-13.417,1.226-11.032,17.438-0.667,15.118c4.685-1.117,9.515-2.763,14.386-1.772c4.061,0.817,7.616,5.183,6.283,9.394
		c-1.009,3.279-3.862,5.376-6.355,7.49c15.196-4.39,11.888-21.972-9.55-18.674c-1.982,0.223-4.523,1.364-6.151-0.36
		c-1.501-1.609-0.168-3.976,1.382-4.979c11.595-7.517,26.484,15.733,40.262,3.136c-0.036,8.339-1.62,16.849-5.877,24.109
		c11.211,1.54-9.48,35.157-35.583,20.945c24.267,7.184,31.284-10.812,24.639-7.622c-3.824,1.554-10.901,8.862-28.534,5.552
		c-0.783-7.525-5.845-16.144-6.843-19.288c-5.453-16.113-1.956-46.448-20.656-37.571c3.003-6.601,3.537-14.278,1.273-21.185
		c-2.555-8.434-36.066-50.851-55.76-48.696c2.31-0.333,4.666-0.275,6.951,0.188c2.871-3.243,1.754-8.067-0.631-11.244
		c-15.685-20.607,18.527-49.527,27.165-55.47c-0.616,0.511-1.168,1.105-1.69,1.718c0.432,0.408,0.847,0.829,1.249,1.261
		c-0.593,3.038-6.355,4.481-12.614,10.83c18.413-13.303,42.782-5.634,44.448-19.299c8.114,12.552-19.55,11.916-26.699,13.1
		c-37.446,8.231-35.862,50.207-8.151,60.083c-1.94-1.664-3.88-3.346-5.598-5.25c3.488,1.821,9.42,0.222,4.547-7.406
		c-8.312-12.251,6.512-27.872,19.101-20.368c10.743,6.552,4.634,20.88-6.097,12.794c-2.091-1.796-5.755-1.13-6.986,1.363
		c-3.315,5.416,5.576,10.291,12.692,7.286c8.146-3.348,9.375-14.41,2.282-20.897c-5.83-5.584-15.311-6.303-21.94-2.276
		c3.957-2.454,9.035-3.424,14.919-1.826c19.518,1.39,17.243-14.145,9.208-15.269c-4.531-1.102-15.198,5.201-16.842-0.919
		c-0.885-4.039,4.922-7.522,13.383-6.337c5.789,0.91,18.269,2.353,22.26-1.916c2.736-3.08-1.311-7.084-6.175-12.65
		c-1.004-5.502-2.938-10.836-3.304-16.458c-0.709,2.643-0.697,5.863-2.859,7.823c-2.703,2.234-7.292-0.799-6.211-4.181
		c-0.4,0.415-0.773,0.855-1.157,1.285c5.778-7.005,13.44-18.283,13.968-32.003c-1.598,6.589-4.042,12.992-7.526,18.818
		c-9.001,15.448-32.42,36.274-33.42,37.06c6.533-9.477,35.787-30.781,35.787-61.693c0.168-25.53-16.041-45.146-21.437-49.944
		c14.401,17.954,17.199,36.419,16.362,56.474c-2.607-11.785-10.95-21.852-21.449-27.57c6.841,5.97,12.475,13.539,15.208,22.272
		c10.223,31.39-19.02,47.618-41.709,78.457c-13.229,18.086-14.703,35.375-8.194,42.339c-2.198,0.661-4.211,1.79-6.089,3.087
		c29.658,17.318,7.685,45.104-0.054,68.763c-24.189,71.519,30.09,85.601,34.033,84.464c6.582-3.893-28.277-58.943,8.463-71.706
		c-0.464,11.001-4.715,19.153-15.491,21.876c7.281,15.094,25.991,28.801,61.092,27.45c0,0,0,0,0,0
		c9.217,5.416,17.617,4.589,23.855,2.838c-2.423,0.704-4.895,1.208-7.446,1.289c8.797,13.407,22.217,12.224,27.011,21.041
		c6.291,12.186-0.38,28.322-1.556,62.462c-7.858,190.767,148.635,239.575,190.923,265.824c-8.235-1.928-17.388,2.09-21.569,9.436
		c-11.969,19.887,15.882,26.661,16.139,69.513c0.289,15.543-4.164,38.124-18.867,53.135c-0.116-0.895-0.668-1.25-1.656-1.065
		c-1.066,0.667-0.353,1.823,0.569,2.154c-2.185,2.103-4.583,4.043-7.213,5.775c35.287-39.812,22.944-98.152-18.53-121.956
		c8.572,7.652,17.155,15.521,23.642,25.083c21.81,31.728,16.732,76.802-14.163,102.759c-10.657,9.398-45.897,23.465-59.849,59.759
		c51.031-64.095,105.455-35.888,92.518,11.953c8.933-16.631,23.493-22.49,31.798-20.999c14.986,2.184,16.824,22.782,6.859,26.134
		c-3.543,1.039-7.418-1.285-8.685-4.637c-0.877-1.874-0.655-3.976-0.847-5.964c-1.224-6.479-11.334-5.526-11.196,1.183
		c0.41,10.774,13.217,17.413,22.17,10.722c9.543-6.795,8.504-23.464-4.577-28.243c-19.794-6.839-31.874-28.674-25.924-49.74
		c7.335-26.753,40.292-40.77,66.012-20.825c-7.983-16.927,8.337-27.192,12.217-12.572c0.09-5.692,0.011-11.388-0.201-17.073
		c2.843,35.13-2.752,87.422,22.552,196.765c13.086,55.519,46.256,151.494,63.849,98.128
		c69.901,232.057,115.967,210.283,83.178,101.054c92.369,231.945,245.255,426.884,253.259,403.445
		C902.131,1645.616,897.964,1638.569,895.254,1633.215z M490.096,790.177c-1.672-11.36,12.483-19.172,21.197-11.022
		c3.887,3.358,5.25,9.214,3.364,13.971C510.063,805.586,491.601,803.167,490.096,790.177z M768.174,984.799
		c0.176,0.44,0.349,0.876,0.535,1.329c0.498-0.115,1.495-0.337,1.994-0.451c-0.026-1.492-0.008-1.424-0.028-2.533
		c0.411,5.062,0.604,9.901,0.78,11.206C770.599,992.459,769.704,989.325,768.174,984.799z M770.666,983.048
		c-0.921,0.325-1.837,0.656-2.747,1.004c-0.65-1.899-1.412-4.031-2.323-6.405c2.033-0.869,3.269-1.186,3.835-1.92
		c-0.166,0.239-0.393,0.449-0.716,0.609c0.294-0.084,0.889-0.258,1.183-0.348C770.22,978.145,770.468,980.619,770.666,983.048z
		 M769.723,973.532c-0.133,0.049-0.233,0.086-0.319,0.117L769.723,973.532C769.799,974.033,769.821,974.183,769.723,973.532z
		 M769.056,973.778c-0.366,0.139-0.782,0.322-4.24,1.748c0.17,0.521-1.43-3.43-2.697-6.309c2.224-0.917,4.436-1.852,6.612-2.877
		c0.304,2.107,0.618,4.469,0.928,7.144c-0.204,0.09-0.607,0.276-0.811,0.372L769.056,973.778z M766.907,954.437l-0.42,0.342
		l0.367-0.173c-1.043,0.493-4.19,2.14-9.576,4.264c0.324,0.661,0.666,1.333,1.02,2.011c3.034-1.159,5.977-2.546,8.92-3.928
		c-1.117-7.429,2.393,15.2,1.154,7.107c-2.379,1.057-4.751,2.108-7.154,3.105c1.746,4.081-1.422-3.711-7.165-14.404
		c0.088-0.037,0.212-0.088,0.342-0.141c-0.137-0.002-0.273-0.077-0.441-0.268c0.892,0.411,3.28-0.398,11.457-4.805
		c-0.096-0.528-0.288-1.585-0.384-2.114c0,0,0.001,0,0.001,0C765.334,947.119,766.569,953.208,766.907,954.437z M766.882,954.593
		L766.882,954.593C766.931,954.958,766.925,954.924,766.882,954.593z M760.762,929.006c0.949,2.186,1.255,4.577,2.042,6.823
		l-0.264,0.168l0,0c-4.457,2.853-9.347,4.949-14.32,6.721c0.396,0.643,0.805,1.298,1.22,1.958c4.835-1.688,9.496-3.85,13.905-6.457
		c0.29,1.212,0.713,3.159,1.556,6.589c-0.24,0.228-0.709,0.685-0.943,0.919c0.269-0.078,0.802-0.221,1.067-0.293
		c-0.013,0.006-7.012,3.333-12.03,5.309c0.153,0.226,0.247,0.464,0.332,0.689c-0.001-0.001-8.842-14.798-8.842-14.798l-0.222,0.06
		c0,0-0.001-0.001-0.001-0.001C749.188,935.362,755.299,932.655,760.762,929.006c0.047-0.829-0.344-1.574-0.692-2.259
		c-5.147,3.616-10.98,6.121-16.938,8.061c3.769,6.183-3.631-5.032-4.268-6.033c6.904-1.72,13.43-4.831,19.237-8.936
		c1.038,3.203,1.873,5.912,2.162,6.771l-0.192,0.138C760.42,927.432,760.81,928.177,760.762,929.006z M762.987,936.907
		c-0.047-0.132-0.093-0.264-0.151-0.39C762.888,936.633,762.938,936.762,762.987,936.907z M762.829,936.504
		c-0.082-0.175-0.176-0.344-0.288-0.505C762.653,936.16,762.745,936.319,762.829,936.504z M757.361,917.581
		c-5.754,4.205-12.29,7.346-19.208,9.064l0,0l-0.552,0.018l-0.505-0.162c-4.523-6.013-9.448-11.713-14.482-17.299
		c1.985,1.273,27.071,24.907,31.396-0.841C755.034,910.753,756.26,914.259,757.361,917.581z M663.195,799.777
		c3.398-0.492,6.784-1.043,10.141-1.792c-0.002-0.04-0.004-0.099-0.006-0.144c0.354,4.484,2.461,8.932,1.617,6.865
		c-2.373,0.523-4.762,0.956-7.153,1.37C665.892,804.174,664.387,802.035,663.195,799.777z M669.83,808.004l-0.06,0.012
		c-1.29-1.278-1.444-1.425,0-0.001c0.003,0,6.036-1.207,6.036-1.207c-0.197-0.476,3.289,5.921,5.292,9.281
		C677.032,813.884,673.224,811.145,669.83,808.004z M698.534,797.367c0.348,5.73-5.1,10.884-10.8,10.259
		c-10.801-0.813-12.692-16.388-2.174-19.527C691.561,785.942,698.582,791.024,698.534,797.367z M690.174,771.014
		c-9.689,4.27-19.606,7.179-30.73,8.574c-0.048,0.738-0.096,1.483-0.132,2.247c10.998-1.298,21.804-4.277,31.901-8.824
		c-0.229-0.72-0.469-1.447-0.679-2.15h0c0.138,0.459,1.904,5.704,3.34,10.625c-9.731-3.862-13.72-0.168-19.107,6.787
		c-1.072,2.845-1.513,5.499-1.504,8.002c-0.009-0.208-0.017-0.398-0.023-0.548c-3.658,0.821-7.351,1.422-11.055,1.937
		c-0.946-2.193-1.629-4.462-2.104-6.718c4.945-0.567,9.857-1.467,14.685-2.674c0.661-0.853,1.153-1.82,1.694-2.751
		c-5.491,1.543-11.125,2.529-16.776,3.248c-1.085-6.973-0.359-13.484,0.37-16.696c0,0.146,0.001,0.298,0.003,0.464
		c9.709-1.309,19.196-4.11,28.121-8.146c1.186,3.162,2.276,6.055,2.387,6.297L690.174,771.014z M685.014,755.917
		c0.341,1,2.981,7.965,2.366,6.354c-18.961,8.388-24.819,6.977-26.587,7.708l-0.436,0.046c0.079-1,1.337-13.944,0.733-6.866
		c8.187-1.292,16.092-3.934,23.702-7.166c0,0.001,0,0.001,0,0.002L685.014,755.917z M662.081,753.688
		c-0.009-0.206-0.013-0.434-0.013-0.674C662.071,753.238,662.07,753.461,662.081,753.688z M662.081,753.699L662.081,753.699
		c6.673-1.31,13.172-3.454,19.341-6.313c-0.3-0.69-0.595-1.375-0.877-2.054c-5.902,2.69-12.076,4.829-18.441,6.078
		c0.135-3.388,0.571-8.876,0.281-16.486c3.919-1.068,7.744-2.453,11.444-4.122c0.937,1.954,1.938,4.055,2.942,6.19
		c-4.58,2.155-9.387,3.809-14.301,5.007c0,0.57,0.006,1.712,0.012,2.277c5.25-1.19,10.368-2.956,15.238-5.256
		c2.897,6.214,5.63,12.343,6.659,15.455c-0.094-0.251-0.181-0.504-0.303-0.747c-7.226,3.364-14.895,5.773-22.758,7.124
		c0.222-2.128,0.443-4.478,0.624-7.124L662.081,753.699z M684.634,755.304c0.07,0.257,0.126,0.49,0.155,0.674
		C684.753,755.747,684.688,755.527,684.634,755.304z M656.038,697.076c0.7,1.04,2.33,3.899,4.201,7.293
		c-0.689,0.27-1.367,0.546-2.039,0.834c0.162,0.715,0.343,1.453,0.522,2.192c0.865-0.348,1.736-0.691,2.613-1.027
		c-3.159-5.715,6.07,10.937,7.438,14.266c-1.077,0.428-3.902,1.669-7.299,2.738c0.072,0.745,0.156,1.508,0.246,2.27
		c2.757-0.841,5.454-1.892,8.091-3.057c-0.318-0.672-0.63-1.338-0.93-1.992l0,0c0.148,0.323,1.79,3.654,3.965,8.163
		c-3.417,1.567-6.947,2.869-10.567,3.885c0,0.015,0.001,0.03,0.001,0.045C661.78,723.568,660.211,711.714,656.038,697.076z
		 M655.664,792.901c-0.067-0.3-0.124-0.602-0.181-0.902C655.541,792.3,655.598,792.602,655.664,792.901z M655.346,791.246
		c-0.026-0.16-0.055-0.321-0.078-0.482C655.292,790.925,655.318,791.086,655.346,791.246z M617.302,780.446
		c0.08-0.122,0.151-0.251,0.229-0.374C616.943,781.072,615.794,782.999,617.302,780.446z M184.46,190.773
		c-0.017-0.031-0.034-0.062-0.051-0.093C184.425,190.711,184.443,190.741,184.46,190.773z M162.495,157.577l-0.27-0.012
		c2.006-23.401,2.18-47.175-2.433-70.3C172.354,108.537,170.695,133.805,162.495,157.577z M197.268,200.183
		c3.393,0.508,6.853-0.011,9.868-1.358C203.964,200.278,200.545,200.714,197.268,200.183z M196.532,200.053
		c0.216,0.042,0.431,0.083,0.648,0.117C196.963,200.134,196.747,200.097,196.532,200.053z M210.284,196.99
		c-0.022,0.016-0.045,0.032-0.067,0.048C210.239,197.022,210.262,197.006,210.284,196.99z M207.997,198.412
		c-0.102,0.053-0.205,0.099-0.308,0.151C207.792,198.513,207.896,198.465,207.997,198.412z M261.176,160.017
		c2.103-18.226,12.116-12.311,14.35-9.989c6.33,7.088-15.598,35.751-21.786,43.902l0.001,0c-0.234,0.258-0.703,0.775-0.937,1.033
		c0.306-0.607,0.625-1.213,0.949-1.808c0,0,0,0-0.001,0C259.32,183.033,260.119,171.279,261.176,160.017z M221.972,195.142
		c10.811,6.7,17.988,4.806,25.305,1.021C225.565,217.392,214.377,189.714,221.972,195.142z M263.434,254.901
		c2.314-8.85,14.313-5.575,12.77,1.922c-1.062,5.26-5.921,8.316,0.841,16.32C266.432,270.548,261.385,262.602,263.434,254.901z
		 M162.603,336.247c-7.528-2.309-5.01-7.724-10.097-23.654c12.246,12.983,27.728,14.163,45.662,13.407
		C189.358,330.338,177.014,341.209,162.603,336.247z M110.14,264.448c0.136,0.156,0.277,0.307,0.42,0.458
		C110.416,264.755,110.277,264.602,110.14,264.448z M106.584,248.325c-1.26,5.492-0.284,11.495,3.307,15.826
		C106.139,259.712,105.235,253.781,106.584,248.325z M116.178,262.847c-0.084,1.442-1.916,2.199-3.075,1.406
		c-5.859-3.52-8.387-18.862,4.066-26.027C105.733,249.158,115.82,261.827,116.178,262.847z M106.657,248.006
		c0.004-0.015,0.008-0.03,0.012-0.045C106.665,247.976,106.66,247.991,106.657,248.006z M113.904,237.12
		c0.282-0.208,0.576-0.401,0.871-0.593C114.479,236.716,114.187,236.911,113.904,237.12z M134.343,228.533
		c-0.853,4.457-6.193,1.548-12.482,3.093c-7.995,1.633-14.758,8.12-16.62,16.079C108.038,225.117,135.999,220.221,134.343,228.533z
		 M136.526,187.982c-0.365,0.456-0.74,0.905-1.09,1.371c6.183-1.981,7.236,9.251-0.348,9.682c-2.594-0.426-3.489-3.478-3.117-5.754
		c-0.204,0.121-0.391,0.265-0.588,0.395c0.218-0.157,0.421-0.297,0.586-0.395C132.357,192.538,134.154,190.711,136.526,187.982z
		 M128.586,195.98c-0.547,0.545-1.077,1.108-1.576,1.698c2.156-0.559,4.943,1.453,3.874,3.808c-2.382,3.009-10.52,6.189-8.589,0.829
		c-0.157,0.06-0.293,0.15-0.441,0.223c0.187-0.107,0.336-0.183,0.439-0.223C123.062,201.185,126.032,198.245,128.586,195.98z
		 M131.826,366.682c-4.386,12.26-19.791,14.16-11.833,2.973c3.418-4.541,4.379-10.385,4.601-15.929
		c3.754-1.298,7.526-2.805,10.494-5.532C133.117,354.206,134.102,360.748,131.826,366.682z M832.605,1542.643
		c4.505,8.517,18.634,33.863,6.336,29.048c-11.72-4.843-30.652-34.967-38.241-46.18c11.862,8.469,19.13,3.528,17.88-6.804
		c-7.249-12.715-18.536-33.096-18.536-33.096c5.881,13.399,16.865,34.914,4.685,32.31c-12.05-2.73-25.201-24.166-31.864-34.49
		c12.65,6.553,16.305-6.664,14.679-22.05c-5.297-10.091-9.964-20.5-15.16-30.633c3.16,8.806,6.884,17.509,8.445,26.795
		c-6.137-7.687-18.658-2.023-15.731,8.529c-4.697-4.217-8.151-9.556-11.707-14.704c6.242,10.822,12.772,21.482,19.458,32.039
		c-20.87-32.342-36.5-58.625-37.657-64.509c14.893,7.567,22.919-5.693,21.86-22.13
		C789.159,1470.375,835.578,1547.441,832.605,1542.643z M766.852,1462.312c0.779-8.296,12.848-8.01,13.449-0.048
		C781.518,1471.826,765.909,1472.061,766.852,1462.312z M725.665,1311.446c11.367,50.91-8.481,60.866-28.82,32.474
		c-5.912-12.518-11.943-25.531-17.658-38.137c17.255,30.764,48.243,16.75,38.365-22.3c8.443,29.289,19.248,61.596,29.091,87.842
		c-0.001-0.001-0.002-0.005-0.003-0.006c1.796,6.631,3.316,13.401,3.448,20.303c-9.734-12.329-25.026-4.226-23.57,8.691
		c-2.259-2.889-4.343-5.905-6.307-8.986c0.654,2.085,13.052,25.549,14.966,27.553c-2.872-2.97-13.795-24.057-26.987-51.249
		c13.599,11.074,28.841,6.17,30.311-18.429C733.942,1336.715,729.767,1324.09,725.665,1311.446z M745.053,1245.275
		c8.488,38.282,19.265,75.46,29.301,107.319c-0.467-1.487-9.306-29.769-9.669-30.528c0.925,3.856,1.622,7.772,2.541,11.634
		c-9.653-8.927-23.259-3.204-23.9,9.767c-2.672-4.523-4.865-9.298-6.949-14.109c0.1,0.531,0.229,1.053,0.369,1.572
		c-2.95-8.567-5.874-17.401-8.75-26.476c9.54,23.581,23.971,21.551,28.436,9.73c4.242-11.113-0.055-22.032-3.748-36.357
		c6.371,31.782-14.544,42.431-28.909,12.986c0.018,0.076,0.037,0.145,0.055,0.221c-3.148-10.367-6.224-21.017-9.199-31.912
		C725.384,1286.491,751.638,1281.39,745.053,1245.275z M746.904,1345.467c-3.519-13.105,17.635-18.526,20.476-4.601
		C770.647,1354.207,749.733,1359.028,746.904,1345.467z M741.677,1344.944c-0.602-1.674-1.204-3.357-1.805-5.054
		C740.507,1341.654,741.106,1343.335,741.677,1344.944z M748.695,1398.036c0.342,5.742-5.466,10.829-11.112,9.688
		c-4.835-0.685-8.608-5.442-8.127-10.307C730.39,1384.902,749.024,1386.325,748.695,1398.036z M816.695,1478.445
		c-5.969,15.958-38.002-34.768-69.854-119.461c9.34,23.054,27.742,19.848,27.532-6.327l0,0c4.601,14.3,8.897,26.895,12.858,38.024
		c-0.146-0.335-0.272-0.604-0.371-0.779c4.089,15.582,6.686,26.932-3.581,28.489c-8.797,1.255-16.457-13.529-20.506-21.053
		c2.239,6.307,13.148,29.743,16.176,36.009c10.739,7.758,21.388,1.782,19.52-12.438
		C812.834,1457.927,819.861,1470.431,816.695,1478.445z M741.272,1227.351c5.895,39.378-19.237,46.168-31.886,11.883
		c-4.489-17.654-8.681-35.863-12.455-54.483c0.684,8.194,1.852,16.918,3.378,25.942c3.513,55.674-29.626,60.274-52.247,17.649
		c0-0.001,0-0.001,0-0.002c-8.353-17.595-32.222-93.605-46.637-143.152c15.644,38.948,31.233,46.924,33.618-3.297
		c2.515,22.086,15.29,47.577,40.726,59.281c3.099-11.886,5.448-24.056,5.526-36.381c2.319,8.307,6.139,16.903,13.599,21.804
		c4.026,2.351,23.889,10.766,29.828,31.126c3.668-10.67,4.611-20.494,4.787-27.34
		C730.155,1161.293,734.703,1194.482,741.272,1227.351z M623.988,1010.87c2.559,38.636-26.151,41.625-40.117-0.22
		c-2.436-10.552-4.665-20.491-6.855-30.72c10.834,39.957,41.327,42.038,40.835,2.549
		C620.284,992.675,622.316,1002.127,623.988,1010.87z M629.019,1043.7c8.234,76.678-23.131,65.407-39.053-1.872
		c1.506,6.365,3.348,12.695,5.719,18.803c-2.164-9.074-4.139-17.355-5.977-25.101C599.481,1059.757,619.16,1070.609,629.019,1043.7z
		 M589.961,1041.808C589.961,1051.808,589.961,1051.808,589.961,1041.808L589.961,1041.808z M729.419,1121.37
		C729.419,1121.37,729.419,1121.37,729.419,1121.37C729.536,1119.642,729.413,1122.803,729.419,1121.37z M729.034,1121.04
		c-1.505-1.402-3.239-4.459-5.031-7.447C725.795,1116.579,727.533,1119.639,729.034,1121.04z M723.866,1113.365
		c0.022,0.036,0.044,0.072,0.066,0.108C723.91,1113.437,723.888,1113.401,723.866,1113.365z M720.109,1109.651L720.109,1109.651
		c-6.017,25.212-30.691,21.681-42.356-33.579c0.126,0.561,0.253,1.133,0.383,1.727c16.73,34.276,49.416,17.351,36.142-26.391
		C721.073,1070.628,724.044,1091.186,720.109,1109.651z M707.832,1054.452c7.585,17.164-20.676,26.933-25.011,8.439
		C678.645,1047.477,701.624,1039.428,707.832,1054.452z M696.275,1015.433c7.336,11.019,12.746,21.138,14.2,35.055
		c-12.217-17.265-36.689-4.312-31.402,14.061c-3.651-4.769-6.469-10.109-8.733-15.659c1.908,6.898,1.968,5.671-6.026-17.288
		C677.8,1048.913,697.66,1044.122,696.275,1015.433z M637.346,959.621c2.348-1.623,2.74-1.18,34.453,27.912
		c35.098,30.721,1.574,62.081-22.356,6.073C637.341,963.996,635.222,962.183,637.346,959.621z M649.334,1002.11
		c7.778,22.41,15.106,45.019,20.554,68.126c1.58-1.562,2.979-4.151,5.616-3.496c-1.351-5.43,1.014,3.716,0.001,0.001
		c-2.637-0.655-4.036,1.934-5.616,3.496c2.742,11.861,10.032,44.935-1.003,50.04c-20.394,8.195-32.423-34.466-33.504-56.341
		c-0.061,0.353-0.108,0.719-0.162,1.078c-1.19-44.91-15.102-90.517-33.305-146.939C632.337,955.934,625.628,934.584,649.334,1002.11
		z M598.923,915.406c-0.14-0.485-0.277-0.969-0.404-1.449C598.647,914.442,598.787,914.924,598.923,915.406z M602.758,927.515
		c2.499,7.587,6.241,20.913,8.262,28.321c-0.02-0.045-0.042-0.097-0.061-0.138c7.017,47.615-23.405,49.307-36.748,9.623
		c0.162,1.328,0.348,2.618,0.546,3.889c-2.073-10.004-4.166-20.558-6.422-32.435C579.965,988.773,615.057,968.949,602.758,927.515z
		 M525.169,826.582c1.86,3.32,10.046,21.877,22.41,41.202c-0.909-1.384-1.815-2.769-2.721-4.154
		c10.261,71.361,30.528,127.968,18.464,131.05c-12.078,0.149-18.343-65.155-27.588-67.814c-3.326,5.893,0.136,29.615-7.172,27.336
		c-13.985-6.255-18.513-75.325-14.56-108.393C511.393,845.991,526.97,847.352,525.169,826.582z M556.124,880.224
		c-0.462-0.631-0.933-1.255-1.386-1.892C555.195,878.965,555.658,879.595,556.124,880.224z M506.606,845.048
		c-7.038-1.813-17.737-8.935-9.992-4.327C500.193,842.801,503.542,844.229,506.606,845.048z M462.526,716.525
		c40.393,6.756,62.285-23.137,63.915-7.46C527.423,720.461,480.888,727.69,462.526,716.525z M514.95,693.718
		c-2.365,7.441-21.619,20.169-40.97,20.038l-0.054-0.366c22.07-4.535,30.54-20.903,36.454-23.678
		C512.711,688.457,515.924,691.184,514.95,693.718z M524.848,680.788c0.071,0.026,0.142,0.05,0.213,0.076
		C524.991,680.837,524.919,680.814,524.848,680.788z M525.786,681.165c0.144,0.062,0.288,0.124,0.43,0.19
		C526.074,681.288,525.93,681.227,525.786,681.165z M526.728,681.611c0.201,0.103,0.402,0.208,0.599,0.319
		C527.13,681.818,526.929,681.714,526.728,681.611z M527.683,682.141c0.232,0.139,0.46,0.282,0.685,0.433
		C528.144,682.423,527.914,682.281,527.683,682.141z M528.658,682.777c0.224,0.158,0.445,0.321,0.661,0.491
		C529.103,683.098,528.882,682.935,528.658,682.777z M530.904,684.705c-0.066-0.068-0.132-0.135-0.199-0.202
		C530.771,684.57,530.838,684.636,530.904,684.705z M529.661,683.548c0.171,0.143,0.34,0.288,0.505,0.439
		C530,683.837,529.832,683.69,529.661,683.548z M496.439,616.3c3.413-3.642,13.473-3.123,17.96-1.117
		c12.67,6.472,20.172,76.457-1.117,53.92c-2.799-3.153-5.04-6.769-6.944-10.511C502.312,628.919,491.667,621.861,496.439,616.3z
		 M475.338,613.273c2.217-0.901,4.625-0.402,6.932-0.312c5.848,0.307,9.851,1.879,12.115,9.058
		c11.124,34.841,2.841,58.701-10.782,37.138c-6.369-12.115-1.418-8.625-9.442-33.228
		C473.358,623.238,469.635,615.113,475.338,613.273z M450.789,610.26c2.875-1.051,13.835,0.121,17.233,4.361
		c5.314,6.758,11.239,39.856,1.538,44.875c-0.001-0.001-0.001-0.002-0.002-0.003c-5.326,1.711-10.211-5.731-13.04-10.529
		c-1.568-2.354-1.255-5.291-1.874-7.933c0,0,0,0,0.001,0C450.814,620.659,443.965,612.502,450.789,610.26z M476.534,670.301
		c-2.172-2.966-3.872-6.254-5.919-9.304C472.662,664.047,474.362,667.335,476.534,670.301z M423.056,603.964
		c0.757-2.12,3.508-1.88,5.226-1.219c3.232,1.213,6.608,2.054,9.737,3.538c11.173,4.99,11.343,27.361,10.686,34.295
		c0,0-0.001,0-0.001,0c-2.303,16.971-11.343,11.899-19.407-5.081c-0.259-1.043-1.067-8.091-1.069-8.091
		C425.639,611.895,421.762,608.436,423.056,603.964z M399.973,590.155c2.607-0.228,4.884,1.352,7.088,2.517
		c3.453,2.161,17.825,5.754,16.428,33.461h0c-1.184,13.067-6.557,13.566-10.007,10.013c-7.233-6.768-6.793-14.76-7.484-17.785
		c0,0,0,0,0,0C402.285,599.11,396.725,592.037,399.973,590.155z M397.287,631.67c5.559,6.461,8.807,0.898,9.947,0.589
		c0.859,0.577,1.106,1.646,1.484,2.559c1.7,4.955,4.246,9.947,8.589,13.076c7.222,5.451,10.411-3.377,11.508-4.331
		c3.721-2.235,4.476,8.907,12.686,18.02c14.235,15.428,11.748-11.761,19.954,1.604c4.246,7.239,11.397,14.726,16.206,8.565
		c0.001,0.001,0.001,0.002,0.002,0.003c1.267-1.73,1.802-4.313,4.042-5.076c3.569,0.753,4.002,8.382,10.319,14.031
		c13.958,12.544,11.642-18.77,22.602-0.428c-16.051,4.289-15.335,22.782-38.969,29.792c-15.887,4.943-33.967-2.787-42.694-16.638
		c-3.664-6.619-7.112-13.389-10.001-20.386c0.324,12.367,2.156,24.675,4.12,36.88c0,0,0,0,0,0
		c1.577,9.412,4.107,14.934-1.183,17.244c-13.519,5.499-11.145-42.567-9.977-51.902c-9.805,26.509-45.74,42.676-75.448,30.135
		c-15.707-6.588-35.741-27.843-45.218-37.524c21.488,19.878,45.526,24.229,48.822,23.065c0.505-1.639-0.612-3.087-2.294-3.153
		c-48.888-8.46-74.957-47.7-74.553-79.034c-0.521-29.718,23.872-31.357,28.399-12.307c1.057,4.048,0.271,8.252,0.715,12.367
		c0.378,5.495,1.723,10.847,3.201,16.133c-2.931-7.166-5.177-14.608-6.817-22.17c-2.329-11.107-11.5-13.276-16.091-8.601
		c-13.326,13.022,0.633,75.384,59.789,90.14c-46.194-17.173-50.355-45.539-47.355-52.539c4.488-12.128,11.258,27.547,51.5,38.562
		c11.472,3.346,23.593,3.718,35.42,2.385c-8.017-0.731-36.694,1.898-57.361-18.859c0.667,0.595,1.365,1.185,2.104,1.769
		c-4.883-5.237-8.163-11.821-9.959-18.716c-7.774-30.857,33.666-39.504,40.286-19.083c1.904,6.042-2.441,15.644-15.389,14.416
		c-11.192-0.485-11.457,17.446,0.042,17.167c12.941-0.475,15.264-9.605,20.332-10.499c9.226-2.2,13.221,11.725,4.145,14.74
		c-11.046,4.192-23.323,2.402-34.153-1.586C371.601,684.911,402.634,651.615,397.287,631.67z M323.297,608.065
		c0.279-0.022,0.806-0.065,1.12-0.09c-9.526,0.847-22.895,19.126-13.308,36.651C284.277,604.334,311.6,574.896,323.297,608.065z
		 M383.679,617.76c0,0-0.001,0-0.001,0c-0.456,5.694-0.696,12.217-5.027,16.5c-6.101,6.584-19.933,5.401-22.278-9.232
		c-2.076-14.189-17.674-22.411-31.539-17.719c0,0,0-0.001,0-0.001c-3.214-29.95-17.519-33.671-23.642-24.014
		c-1.136,1.556-1.676,3.652-3.394,4.703c-1.652,0.006-2.061-1.886-2.445-3.123c-4.684-18.555-23.331-24.779-30.195,3.999
		c-4.488,20.238,1.605,41.601,13.25,59.225c-49.962-68.762,1.716-118.986,37.349-75.82c23.14,26.792,48.493,16.06,51.878-3.105
		c-2.571-4.739-5.136-9.478-7.857-14.127c-14.329-5.941-16.263,6.693-10.565,9.442c2.601,1.646,5.424-0.246,8.169-0.06
		c3.82,0,7.55,3.172,7.658,7.076c0.011,8.846-13.49,18.95-26.891,14.77c-21.088-6.261-23.603-26.039-42.652-30.928
		c-15.551-4.276-33.206,5.835-38.057,27.642c-2.232,11.772-25.853,11.352-38.658-74.929c-3.355-50.077,23.066-45.492,22.65-29.012
		c0.079,4.018-1.735,7.682-3.153,11.334c-19.833,54.3,40.176,75.637,53.062,28.999C315.912,461.181,384.727,584.832,383.679,617.76z
		 M436.794,541.897c4.927,5.075-5.077,9.788-4.517,27.318C420.237,548.691,431.214,535.672,436.794,541.897z M429.837,576.729
		c-13.973-11.644-23.725-26.804-26.365-38.663C406.646,550.319,417.569,565.887,429.837,576.729z M418.895,524.575
		c-1.062,5.06-9.607,3.247-12.728,12.698c-0.222-4.823,1.232-9.839,4.169-13.701C414.964,517.546,419.673,521.517,418.895,524.575z
		 M465.926,553.628c3.357,1.195,5.165,4.462,7.532,6.895c2.558,3.004,6.12,5.575,6.871,9.701
		c0.918,3.235-5.481,15.001-21.484-12.813c0.373,0.621,0.754,1.238,1.153,1.845C458.608,552.49,463.148,552.615,465.926,553.628z
		 M592.555,558.872c-13.767,1.183-26.687-6.223-36.291-15.503c33.311,14.998,13.353-21.275,13.262-22.284
		C578.187,533.038,586.098,545.58,592.555,558.872z M582.752,496.998c-0.331,13.325-13.198,19.879-24.975,3.219
		c-0.252,0.135-0.74,0.411-1.004,0.558c9.466-5.307-0.689-13.007,0.373-18.12c0.853-2.24,2.979-3.658,4.048-5.778
		c5.53-10.202,1.663-20.643,3.382-25.101c0.901,0.576,1.718,1.279,2.379,2.132c-12.156-23.534,22.405,46.046,10.86,22.591
		C580.158,483.112,583.095,489.827,582.752,496.998z M581.124,483.614c0.036,0.082,0.073,0.163,0.109,0.245
		C581.197,483.777,581.161,483.695,581.124,483.614z M495.995,374.875c-0.204-1.234-0.749-2.317-1.398-3.355
		C495.246,372.558,495.791,373.64,495.995,374.875c56.311,31.225,54.194,73.193,34.482,61.266c-0.72,0.571-1.441,1.141-2.15,1.718
		c3.691,4.997,2.223,1.952,6.745,9.442c1,0.38,8.749,6.695,12.193-1.105c3.993-8.658-1.324-20.972-1.964-24.278
		c0.587-0.989,1.615-0.411,2.377,0.02c3.056,4.278,9.776,14.484,5.42,8.016c17.25,33.22,2.687,51.447-11.435,29.271
		c2.853,7.722-2.514-7.144-6.541-11.845c0,0,0,0,0,0c-10.708-17.412-30.638-22.389-47.175-5.202c0.294,0.3,0.889,0.907,1.189,1.207
		c18.158-18.674,36.204-8.076,41.721,0.216c8.284,11.985,0.918,31.766-16.23,30.994c19.231-1.989,20.177-28.99,3.706-33.264
		c-24.957-7.847-33.392,26.899-12.452,35.114c6.769,3.159,14.457,0.39,21.407,2.745c10.499,2.955,31.077,28.671,38.946,42.616
		c19.848,37.358-12.888,24.174-35.156-8.523c7.99,15.832,20.319,32.551,35.141,41.741c-0.185-0.095-0.37-0.19-0.555-0.284
		c9.148,6.985,18.741,13.599,26.381,22.308c12.26,13.72,15.338,31.681,14.764,35.324c-0.739,3.497-8.074-1.352-11.166-3.105l0,0
		c-34.416-20.104-76.175,7.292-116.067-26.687c1.851,1.528,3.78,2.958,5.823,4.228c-4.942-6.902,1.024-9.933,4.745-9.664
		c2.439,0.102,4.259,1.91,6.295,3.027c25.779,15.284,52.942,10.686,61.663,5.382c-68.075,16.555-75.364-75.478-142.565-69.802
		c24.904-0.229,43.263,26.073,43.325,29.299c-1.765,3.236-5.109,0.464-7.724-1.934c2.158,3.618-18.36-30.225-41.805-23.634
		c0.396,0.078,1.183,0.246,1.58,0.33c-0.001,0-0.002,0-0.003,0.001c-0.397-0.084-1.183-0.252-1.578-0.33
		c-12.405,3.052-8.057,22.591-1.411,35.114c10.417,19.849-10.118,12.472-28.759-18.758c-18.783-30.41-18.439-63.595-67.601-49.489
		c0,0-0.001,0-0.001,0c-2.877,0.739-5.917,1.58-8.896,0.931c-12.123-2.688,20.29-15.315,10.674-36.303
		c-8.951-19.763,13.806-27.591,20.488-9.725c7.484,19.845,21.166,36.321,40.826,43.247c20.109,6.897,29.545-0.424,33.69-0.487
		c4.858,0.253,5.793,9.133,11.196,14.47c3.911,3.631,6.099,2.004,7.22-3.31c4.2,12.005,13.846,20.012,14.926,5.349
		c5.271,10.933,15.827,19.683,17.454,4.115c4.584,11.94,12.085,17.031,15.034,5.033c7.78,17.4,13.969,12.441,15.671,4.727
		c1.778,3.292,3.52,7.058,7.052,8.8c2.252,1.262,5.316,0.246,6.541-1.982c1.496-2.427,1.562-5.352,1.832-8.103
		c6.36,17.975,18.08,18.887,16.2,1.099c-1.093-6.746-3.364-13.485-7.364-19.071c13.936,35.542-6.045,30.726-10.241,8.541
		c-2.294-9.19-6.402-18.056-12.445-25.384c19.429,37.131,2.399,43.382-1.249,29.63c-1.543-15.449-9.442-29.432-18.788-41.505
		c-0.955-1.111-0.367-2.571,0.198-3.7c-1.526,0.582-3.033,1.213-4.463,2.012c2.294,1.045,3.567,3.298,5.015,5.232
		c25.871,36.294,7.564,50.386,2.553,35.432c-0.598-18.83-14.287-35.142-15.401-39.012c0.21-0.252,0.619-0.763,0.829-1.015
		c-0.249-0.031-0.496-0.073-0.744-0.11c2.698,0.258,4.63-0.264,7.746-0.528c16.729-9.348,10.139-9.403,22.02-21.347
		c-0.3-0.3-0.895-0.907-1.189-1.207c-3.057,3.153-5.772,6.625-8.223,10.265c-6.695,9.947-14.113,9.054-16.902,5.712
		c-4.821-5.328,2.564-9.183,1.075-15.539c-2.095-10.265-15.222-7.427-11.754-7.911c2.211-2.805,4.055-5.904,5.256-9.274
		c0,0,0,0-0.001-0.001c1.291-3.369,1.862-6.955,2.06-10.54c9.928,14.826,46.285-6.278,68.871,22.969
		c0.708-0.577,1.429-1.147,2.15-1.718c-9.038-5.923-12.097-14.948-30.213-26.867c-1.207-0.388-1.965-0.633,0.001,0
		c-14.087-8.928-10.007-16.111-0.751-11.659c10.662,5.142,24.9,30.533,31.883,23.618c5.816-7.909-18.816-44.162-64.306-54.395
		c66.765,23.869,71.299,64.891,54.443,50.7c-9.326-8.434-12.219-20.226-24.591-25.329c-11.563-4.427-11.566,5.362-4.692,12.171
		c-6.099-3.597-12.754-6.097-19.322-8.668c3.664-0.913,7.052-4.03,10.998-2.685c-10.023-15.617-20.935-23.53-32.357-28.36
		c-1.317-0.861-2.539-1.911-3.147-3.39C453.357,355.993,486.122,369.68,495.995,374.875z M535.136,447.437
		c2.616,9.822,5.036,25.554-4.97,24.268c-1.068,1.027-2.237,1.936-3.376,2.867C537.058,466.158,538.034,458.328,535.136,447.437z
		 M526.75,474.607C526.822,474.631,526.807,474.627,526.75,474.607C526.749,474.607,526.749,474.607,526.75,474.607z
		 M537.903,477.43c-0.46-0.091-0.917-0.189-1.375-0.284c4.009,0.65,7.163,0.605,11.171,0.782c-0.009-0.071-0.006-0.053,0.001,0.001
		c2.511,2.709,5.514,5.129,7.076,8.577c1.712,3.719-1.225,6.371-5.184,4.973c-3.741-1.192-13.067-8.229-13.731-11.863
		C535.651,478.349,537.002,477.869,537.903,477.43z M547.399,476.162c-0.497-2.465-1.387-5.431-2.485-8.522
		C545.949,470.425,546.853,473.25,547.399,476.162z M514.759,458.504c2.936-4.851-3.964-5.775-4.115-10.674
		c-0.504-5.018,5.511-8.694,11.785-4.247c10.532,7.238,3.533,25.504-10.067,23.51c-4.008-0.122-7.949-5.227-10.68,0.967
		c-7.828-11.823-0.355-23.909,9.269-26.092C496.986,449.081,510.12,467.782,514.759,458.504z M504.95,466.673
		c1,0.286,15.17,7.67,22.26-5.028C522.138,479.724,497.146,470.874,504.95,466.673z M455.174,550.632
		c-1.126-2.173-2.147-4.175-3.162-5.993C453.12,546.608,454.147,548.62,455.174,550.632z M384.796,404.619
		c3.283-5.428,10.342,0.575,7.508,5.443c-2.012,3.796-7.286,4.769-10.902,2.763c-5.01-2.902-11.719-2.415-16.194,1.285
		c2.973-4.109,7.448-6.794,11.899-9.04c0.69,7.899,6.995,7.235,8.121,4.012C386.045,407.562,384.117,406.169,384.796,404.619z
		 M399.2,371.649c-0.001,0-0.001,0-0.002,0c-0.276-2.998-0.907-5.958-1.82-8.823c-7.066-22.376,28.88,5.938,20.224,21.557
		c0.001,0,0.001,0,0.002,0c-6.191,9.911-18.517,3.571-22.897,21.233c-0.876-3.178-3.069-5.814-5.988-7.316
		C396.491,391.957,400.359,381.548,399.2,371.649z M460.274,471.598c21.424,36.136,1.927,45.783-1.958,24.861
		c-2.792-14.646-12.726-32.326-20.632-44.875c-3.077-5.332-1.703-5.738,1.333-7.196c0-0.001,0-0.001,0.001-0.002
		c0.78-0.287,1.59-0.431,2.419-0.437c1.279,0.823,0.751,2.505,0.985,3.778c0.488,13.674,14.037,17.094,11.594,16.267
		C457.049,465.603,458.478,468.859,460.274,471.598z M411.765,458.251c-3.347-4.972-8.925-7.689-4.944-14.268c0,0,0,0,0,0
		c0.252-0.216,0.751-0.643,0.997-0.853c2.896,1.402,13.849,28.224,14.572,42.532c0,0,0,0,0.001,0
		c-0.18,2.048-0.091,5.216-2.631,5.739c-3.37-1.093-5.111-4.649-6.541-7.628C409.841,476.692,420.57,470.187,411.765,458.251z
		 M380.735,476.487c-9.128-0.843-13.184-2.136-13.184-8.319c0.192-4.031,2.295-8.385,6.247-9.899
		c2.469-0.769,5.045,0.234,7.568,0.144C393.026,457.89,390.699,477.136,380.735,476.487z M398.263,454.485
		c2.66-1.243,6.072,1.045,5.622,4.03c-0.204,3.232-4.649,4.77-6.793,2.367C395.116,459.026,395.848,455.572,398.263,454.485z
		 M395.333,455.394c-0.357,0.604-0.638,1.263-0.872,1.909c-0.228,3.537,3.015,6.967,6.655,5.982c4.822-0.902,4.98-6.356,2.522-9.099
		c0.241,0.213,0.466,0.447,0.667,0.702c10.985,5.368-1.291,24.139-7.718,15.545C392.482,465.155,393.186,458.736,395.333,455.394z
		 M426.281,485.527c-4.212-25.029-16.65-39.021-11.285-40.457c1.556,0.27,3.093,0.708,4.601,1.225
		c6.22,2.236,16.761,37.122,17.383,48.118c0,0,0.001,0,0.001,0c-0.096,1.988-0.319,4.911-2.793,5.307
		c-7.367,0.575-7.703-13.193-7.905-14.193C426.282,485.527,426.282,485.527,426.281,485.527z M441.269,496.098
		c-4.95-29.845-21.188-49.281-14.626-49.163c2.589,0.048,5.995-1.34,7.652,1.447C468.727,502.156,452.198,519.482,441.269,496.098z
		 M441.645,500.443c-0.38-0.708-0.729-1.49-1.107-2.259C440.897,498.877,441.255,499.632,441.645,500.443z M438.46,495.247
		c-0.033-0.027-0.069-0.051-0.103-0.078C438.391,495.197,438.427,495.219,438.46,495.247z M437.795,494.776
		c-0.186-0.105-0.389-0.19-0.597-0.268C437.404,494.586,437.608,494.668,437.795,494.776z M427.593,431.047
		c-20.27,1.143-34.036-22.441-24.549-33.09c5.264-6.323,15.94-5.289,18.68,3.466c0.883,2.48,0.384,5.376,1.946,7.628
		c5.088,7.772,16.449-4.597,3.508-14.584c3.472,1.124,7.274,1.532,10.824,0.517c0,0,0,0,0-0.001
		c6.122-2.439,6.65-8.214,4.149-14.343c10.649,10.571,14.965,25.306,6.926,37.901c0,0,0.001,0,0.001,0
		C444.525,425.899,436.224,430.675,427.593,431.047z M433.615,388.143c0,0,0.001,0.001,0.001,0.001
		c-2.037,2.768-5.7,3.549-8.949,3.261c-4.603-0.431-4.877-1.872-3.982-6.073c-0.001,0-0.001,0-0.002,0
		c2.562-8.311-0.607-19.949,4.961-15.502C431.994,374.788,437.935,381.318,433.615,388.143z M426.445,407.514
		c-1.31-1.514-0.901-3.688-1.4-5.496c-0.534-2.949-2.204-5.472-4.054-7.748C434.847,400.604,429.206,411.706,426.445,407.514z
		 M404.251,353.053c35.635,16.034,54.651,7.346,54.996,41.889C452.791,368.095,430.884,369.567,404.251,353.053z M412.085,353.666
		c8.717,2.405,17.873,3.951,28.422,7.17C431.216,358.195,421.68,356.569,412.085,353.666z M371.761,421.327
		c5.452,1.733,6.292,8.411,16.206,3.772l-0.509,0.946c0,0,0,0-0.001,0c-9.507,14.435-24.558,8.202-22.951-0.521
		C365.479,422.569,368.669,420.54,371.761,421.327z M362.601,451.482c8.492,8.033-0.714,31.48-19.545,3.904
		c-2.161-2.633,1.808-8.91,7.929-10.295C357.309,443.76,358.45,447.893,362.601,451.482z M450.873,434.966
		c0.037-0.01,0.073-0.02,0.11-0.029C450.946,434.946,450.91,434.957,450.873,434.966z M461.992,410.007
		c12.371,11.988,30.991,0.198,50.833,13.611C489.257,413.682,465.887,425.923,461.992,410.007z M498.911,408.78
		c-1.511-0.605-2.948-1.392-4.255-2.358C495.93,407.342,497.352,408.15,498.911,408.78z M494.298,406.155
		c-0.071-0.055-0.142-0.11-0.213-0.167C494.156,406.044,494.226,406.101,494.298,406.155z M254.833,228.959
		c-0.426-1.478,1.376-2.006,2.391-2.487c3.116-1.156,12.984-6.863,11.965-1.537C267.7,231.12,257.058,231.463,254.833,228.959z
		 M265.252,232.459c-0.101,0.024-0.202,0.049-0.304,0.072C265.049,232.508,265.15,232.484,265.252,232.459z M262.417,233.091
		c21.611,6.645,35.338,13.901,46.936,22.167C297.189,246.74,282.102,239.145,262.417,233.091z M309.972,255.7
		c-0.198-0.141-0.392-0.282-0.592-0.422C309.578,255.419,309.776,255.559,309.972,255.7z M291.214,276.236
		c2.601-0.793,5.478-0.654,7.863-2.126c4.895-2.57,7.13-9.766,3.526-14.265c-2.836-3.899-9.461-4.721-12.476-0.595
		c-2.001,2.174-0.817,6.229,2.252,6.529c1.748,0.486,2.655-1.556,4.271-1.652c2.355,0.241,4.253,2.907,3.424,5.196
		c-1.508,5.48-9.192,5.513-11.797-0.529c-2.792-5.767,3.21-10.119-3.502-19.191c10.332,3.051,19.131,9.586,27.377,16.296
		c18.378,15.78,3.196,18.08-7.634,14.163C300.206,278.398,295.707,277.299,291.214,276.236z M353.658,372.388
		c-11.056,0.668-18.346-5.981-23.215-15.929c3.964,1.795,8.701,5.873,16.548,0.757C344.475,362.848,345.861,369.188,353.658,372.388
		z M353.292,354.933c4.294-1.91,9.688,1.093,10.518,5.676c1.099,4.439-2.541,9.202-7.082,9.4
		C348.008,370.874,344.854,358.044,353.292,354.933z M337.488,376.725c-36.68-8.259-6.721-70.22-26.969-91.053
		c1.322,0.481,2.229,1.64,3.117,2.673C329.488,308.421,309.068,360.936,337.488,376.725z M306.423,346.428
		c0.775-1.207,1.165-3.13,2.87-3.25c2.951,6.955-9.918,27.993-13.112,29.516c-3.916-0.133-6.372-5.094-4.186-8.319
		C282.826,368.996,297.767,364.139,306.423,346.428z M288.566,349.491c2.12-0.577,4.265-1.118,6.451-1.406
		c1.742-1.099,3.79-1.622,5.484-2.823c1.315-0.733,2.42-2.084,4.024-2.09c3.7,0.721-3.462,9.163-4.757,10.247
		c-3.099,1.189-6.469-2.367-4.751-5.334C292.831,348.374,290.686,348.914,288.566,349.491c4.402,1.502,5.538,7.178,3.7,11.034
		c1.438-0.797,2.794-1.81,4.025-2.962c-6.067,5.816-15.019,9.014-19.222,7.785c-5.055-4.382-2.819-14.715,3.947-16.082
		C283.257,349.436,285.304,349.304,288.566,349.491z M301.744,327.926c5.38-3.356,9.362-8.547,10.281-11.154
		c-0.532,1.537-0.737,16.213-11.488,24.128c2.608-1.934,4.801-4.425,6.367-7.274C301.737,337.047,297.733,329.938,301.744,327.926z
		 M300.522,340.911c-0.395,0.291-0.804,0.573-1.228,0.844C299.712,341.486,300.123,341.206,300.522,340.911z M298.753,354.842
		c-0.055,0.071-0.11,0.141-0.166,0.212C298.643,354.984,298.698,354.913,298.753,354.842z M312.026,316.768
		c0-0.001,0.001-0.001,0.001-0.002C312.053,316.878,312.059,316.912,312.026,316.768z M304.172,368.1
		c-2.968,10.107-5.244,19.109-4.02,25.495C298.567,386.105,300.984,377.546,304.172,368.1z M296.338,375.944
		c0.799-0.721,1.952-2.174,3.124-1.321c0.348,3.61-9.843,21.893,12.866,38.135c-20.374-4.81-43.359-21.605-28.141-27.888
		C288.908,382.966,292.956,379.71,296.338,375.944z M300.242,394.006c0.071,0.323,0.154,0.637,0.244,0.946
		C300.397,394.639,300.316,394.323,300.242,394.006z M300.709,395.703c0.03,0.097,0.063,0.191,0.094,0.287
		C300.77,395.894,300.74,395.798,300.709,395.703z M313.95,346.182c-0.192,8.408-3.416,31.093,19.533,36.381
		C317.492,395.191,299.102,383.05,313.95,346.182z M284.055,333.597c1.579-2.102,4.372-1.622,6.655-1.922
		c2.072-0.181,4.517-1.064,6.301,0.462c3.063,2.504,3.106,7.49,0.775,10.511c4.939-2.656-5.216,4.813-17.748,2.941
		c1.228,0.156,2.466,0.237,3.699,0.213C279.929,342.757,281.298,336.877,284.055,333.597z M259.771,327.337
		c0.204-2.426,1.874-4.847,4.445-5.069c2.847-0.445,4.451,2.336,6.505,3.736c2.258,1.91,5.063,2.931,7.532,4.493
		c4.498,3.491,1.562,14.89-10.055,9.941c0.497,0.442,1.019,0.851,1.555,1.236c-3.811-2.706-7.121-6.16-10.48-15.544
		C259.439,326.532,259.593,326.939,259.771,327.337z M242.123,286.35c-2.298,4.434-9.608,6.989-16.368,0.408
		c0.197,0.789,0.315,1.586,0.393,2.383c-0.476-2.871-1.92-5.623-4.53-8.06c7.676,0.865,15.202-5.767,15.154-13.509
		c0.543-14.822-19.777-15.998-16.482-7.244c1.153,3.004,4.907,3.076,6.829,5.322c2.643,2.733,3.196,7.502,0.583,10.439
		c-6.44,7.367-13.714-2.463-26.297,6.211c-6.984,4.584-12.03,14.623-24.891,18.44c-40.147,12.292-39.34-72.598,20.536-64.498
		c11.677,1.477,23.209,6.385,31.39,15.01c-15.641-7.039-25.317,16.478-11.106,21.69c8.786,2.659,10.002-4.852,5.496-6.643
		c-16.163-6.64,5.138-33.858,19.317,7.754c0.027,0.063,0.032,0.075,0,0.002C242.988,278.056,244.388,282.543,242.123,286.35z
		 M242.832,275.733c3.704,9.229,5.93,20.922,7.892,33.605C248.751,297.577,245.99,283.921,242.832,275.733z M270.895,346.722
		c2.856,1.046,4.971,1.671,6.734,2.051C275.334,348.287,273.1,347.53,270.895,346.722c2.887,4.656-0.949,13.061-6.771,11.871
		c-3.84-6.359-4.934-16.414-6.366-26.749C262.619,342.656,267.008,343.843,270.895,346.722z M278.615,348.965
		c-0.227-0.039-0.453-0.084-0.678-0.13C278.168,348.883,278.395,348.927,278.615,348.965z M265.229,360.205
		c2.614,3.189,6.772,5.053,10.88,5.152C271.138,365.339,267.697,363.416,265.229,360.205z M270.383,378.677
		c-5.051-11.41,10.378-9.582,14.302-10.854c4.625,0.595,7.37,6.258,5.22,10.348c0,0-0.001,0-0.001,0.001
		C284.588,383.24,273.228,384.973,270.383,378.677z M250.803,429.762c-1.099,3.249-0.342,6.799,1.418,9.664
		c3.349,4.861-5.232,7.988-5.232,0.577C247.007,436.291,248.46,432.615,250.803,429.762z M247.823,478.469
		c-0.913,5.303-6.011,13.077-4.072,24.008c3.773-22.285,25.002-11.639,14.704,2.042c-2.678,3.802-14.161,10.727-11.196,21.617
		c3.372,12.975,23.292,16.308,33.066,3.214c28.707-37.788-59.752-60.89-33.666-99.047c-4.499,15.052,4.201,18.472,6.974,14.067
		c1.124-1.429,0.373-3.243,0.535-4.859c2.22-1.57,4.899,4.318,4.973,7.682c-0.108,1.982-1.634,3.886-0.721,5.874
		c1.069,2.853,5.736,2.757,6.865-0.006c3.285-6.841-7.555-8.885-9.346-16.025c-2.421-7.234,7.772-11.326,9.34-4.721
		c0.967,2.559-0.57,5.863,1.706,7.923c2.667,2.643,7.754,0.919,8.295-2.793c-0.367,0.048-1.1,0.132-1.466,0.18
		c-4.552,5.197-10.012,0.118-4.409-7.796c0-0.001-0.001-0.001-0.001-0.002c2.925-3.742,7.099-6.271,11.364-8.205
		c-6.809,9.28-4.963,10.758-6.956,16.001c0.367-0.048,1.1-0.132,1.466-0.18c5.481-30.916,27.77-15.791,65.291-18.89
		c-15.37-3.211-25.393-7.244-31.681-12.005c7.901,5,18.96,3.963,25.436-3.384c2.29-2.422,8.282-15.287,14.145-7.154
		c7.198,9.44,12.618,6.319,13.052,3.189c1.02-7.032-10.511-7.917-13.575-10.487c-5.39-4.119-0.855-11.636,5.31-9.538
		c9.083,2.637,11.586,17.071,24.314,11.881c7.617-2.86,11.423-14.226-16.674-15.034c13.562-8.228,13.13-25.41,3.352-33.624
		c-11.066-9.624-22.708-2.326-26.146-2.042c-12.078,1.492-17.318-13.536-7.148-16.848c2.781-0.925,6.109,0.823,7.01,3.568
		c0.595,2.174-1.771,3.784-1.333,5.946c1.123,5.048,8.451,6.199,11.412-0.769c4.501-9.432-9.774-23.91-22.663-9.424
		c0.052-4.802-1.445-21.2,7.995-21.858c7.395-0.327,12.837,7.48,16.133,14.073c-3.535-14.571-26.35-54.677-67.571-71.948
		c48.221,20.115,64.192,55.641,86.091,81.183c0,0,0,0,0,0c2.144,2.474,4.233,5.015,6.582,7.302c0.27,0.042,0.817,0.126,1.087,0.168
		c2.313,2.416,2.582,2.698-0.001,0c-0.27-0.042-0.817-0.126-1.087-0.168c3.401,4.355,17.254,18.372,20,38.196
		c0.001,0.001,0.002,0.001,0.002,0.002c4.795,38.629-37.601,22.913-42.143,55.129c0,0,0,0,0.001,0
		c-0.407,2.804-0.233,5.643,0.024,8.459c0.692,9.575-13.326,13.368-17.257,3.526c-8.119-23.163-32.28-12.794-30.583,3.119
		c0.228,6.018,5.454,10.139,6.673,15.869c5.023,16.795-17.523,35.141-33.793,20.62c1.278,22.942,30.785,11.4,35.406,10.428
		c0,0,0.001,0,0.001,0.001c51.263-11.237,46.979,34.844,78.301,67.489c0.72,0.847,1.886,1.904,1.327,3.147
		c-1.081,1.213-2.577-0.138-3.484-0.913c-35.694-36.453-24.42-81.327-84.313-64.276c-26.386,7.315-33.82-13.362-28.044-24.368
		c1.201-2.499,3.964-3.796,5.057-6.367c3.544-7.328-5.919-13.965-12.818-6.739c2.949-7.208,10.457-12.247,18.296-11.869
		c-5.933,4.433-3.207,9.018-1.117,10.379c3.613,2.051,7.048-0.737,5.003-3.742c-1.159-0.667-3.237-0.625-3.069-2.457
		c-0.231-5.337,9.986-2.809,6.349,3.742c-1.256,2.721-4.685,3.273-6.127,5.85c-4.494,6.37,0.141,17.133,10.776,15.196
		c-6.932,6.679-14.202,5.305-21.623,1.556c6.853,7.761,20.704,6.89,26.921-1.237c5.61-6.968,5.526-17.864-0.318-24.669
		c-9.462-11.261-28.124-9.817-35.691,3.117c-10.734,18.426,9.635,37.205,15.49,44.697c12.498,15.805,6.136,35.711-6.919,44.31
		c-13.448,9.06-31.968,2.771-38.784-13.665c-10.082-24.355,8.641-40.166,3.189-53.056c-5.161-13.254-25.379-6.505-23.755,26.408
		c-1.171-9.034-1.687-15.048-1.724-15.328c0-0.001-0.001-0.001-0.001-0.002C213.42,447.222,253.45,451.732,247.823,478.469z
		 M267.236,490.494c22.528,17.816,6.134,45.621-7.586,38.712c-4.805-2.024-7.328-8.457-4.571-13.034
		C261.565,506.322,276.987,506.938,267.236,490.494z M253.942,403.714c1.097,2.774,6.249,10.753,10.331,17.266
		C260.196,414.485,255.051,406.538,253.942,403.714z M301.75,454.311c8.098,16.797-13.363,19.049-9.352,9.773
		C294.168,459.111,300.189,463.747,301.75,454.311z M214.108,474.189c-0.061,0.371-0.054,0.319,0-0.003
		C214.108,474.187,214.108,474.188,214.108,474.189z M339.879,924.633c17.815-15.522,53.973-15.153,57.458,23.467
		C389.733,925.888,365.532,914.133,339.879,924.633z M415.994,799.151c-0.445-2.055,1.303-4.733,3.604-3.958
		c6.143,2.195,0.269,46.895-21.281,77.784C409.768,850.006,418.347,824.603,415.994,799.151z M441.425,809.29
		c2.403-1.676,5.478,1.621,3.851,3.965c-17.209,23.209-32.628,47.679-47.59,72.372C403.848,872.753,432.813,816.571,441.425,809.29z
		 M454.7,832.193c3.867-2.701,7.457,2.863,2.247,5.285c-21.128,11.349-38.18,23.419-59.843,55.867
		C418.686,854.13,439.048,841.868,454.7,832.193z M460.106,863.823c-28.544,0.608-49.967,10.727-62.396,36.189
		c7.774-24.074,33.354-42.233,64.144-42.604C468.068,856.707,468.154,864.179,460.106,863.823z M466.225,829.399
		c-13.953-0.768-19.905-10.079-18.05-24.08c-17.612,3.132-26.797-5.961-29.192-23.119c-3.688,25.501-26.967,23.749-33.558,11.671
		c-2.156-4.078-5.604-7.508-6.727-12.085c-3.103-11.646,5.334-18.485,12.848-16.56c10.615,2.404,7.804,13.321,8.776,15.995
		c2.498,7.661,13.97,7.287,15.821-0.084c1.309-5.628-0.3-11.593-3.61-16.236c36.439,23.78,48.965,45.478,52.887,50.515
		c-44.611-75.896-141.549-72.697-208.732-165.564c-41.442-56.748-49.47-132.254-42.733-174.657
		c-1.36,9.553-2.326,35.08-0.271,55.032c0.126-1.238,0.552-2.397,1.279-3.394c2.421,0.294,3.183,2.919,3.718,4.925
		c18.937,86.416,76.162,162.517,159.04,200.239c15.852,7.601,42.602,14.957,57.368,29.654
		c11.246,10.869,19.416,33.967,34.643,54.198c-0.318-0.377-0.55-0.644-0.665-0.751c5.76,9.908,8.413,19.95,9.751,31.929
		C474.157,862.76,452.383,848.442,466.225,829.399z M406.311,771.341c4.337-1.388,9.178,2.294,9.298,6.77
		c0.324,3.994-3.19,7.712-7.172,7.742C400.099,786.342,397.596,773.698,406.311,771.341z M550.239,1136.957
		c-26.581-4.487-67.207-142.136-68.576-287.928c-0.3-4.859,4.217-9.238,9.039-8.952c15.449,0.341,3.306,20.35,12.518,102.279
		c11.91,100.653,38.73,73.207,35.114,40.574c1.429,3.568,6.157,46.354,29.438,79.04c4.043,5.545,13.315,16.981,19.659,14.38
		c1.747-0.678,2.252-2.577,3.189-3.994c1.387,5.328,3.093,10.577,4.144,15.989l0.156-0.462c0,0.001,0.001,0.002,0.001,0.004
		l-0.155,0.459c8.719,50.83-23.65,54.371-37.901,13.353c-0.001,0.021,0.002,0.041,0.001,0.062c0-0.019-0.004-0.047-0.003-0.063
		c-4.872-14.838-15.538-67.794-17.947-79.73c4.007,33.708,11.431,66.912,19.924,99.744
		C561.019,1132.76,555.58,1137.927,550.239,1136.957z M558.132,1107.74c0.427,1.61,0.844,3.276,1.268,4.977
		C558.912,1110.851,558.487,1109.184,558.132,1107.74z M562.061,1122.594c12.987,42.211,49.801,29.074,38.144-16.529
		c10.313,34.728,16.792,53.065,11.913,39.115c10.826,47.349-21.541,55.446-39.77,12.482
		C574.295,1164.726,565.998,1136.854,562.061,1122.594z M575.785,1168.722c19.882,56.903,54.589,38.941,42.605-4.6
		c6.511,19.871,11.116,33.085,11.116,33.085c0,0,0.001,0.001,0.001,0.001c8.894,45.094-20.374,51.995-35.498,21.599
		c0.01,0.227,0.004,0.132-0.002-0.001C588.421,1206.537,581.842,1187.717,575.785,1168.722z M596.469,1225.724
		c2.485,6.042,6.172,14.188,7.727,17.182c17.226,19.906,39.201,6.106,28.989-36.471
		C668.097,1305.824,636.398,1323.685,596.469,1225.724z M648.065,1228.366c0.235,2.951,9.346,25.71,10.364,28.223
		c20.052,27.437,49.002,11.502,46.598-21.856c2.098,9.524,4.462,19.159,6.976,28.677c7.612,52.225-20.35,61.569-46.45,10.707
		c1.26,3.244,2.438,6.264,3.559,9.094C657.254,1256.19,648.479,1234.255,648.065,1228.366z M886.502,1635.462
		c-10.954-1.692-75.531-93.468-48.834-57.296c11.978,6.655,18.88,4.085,3.508-21.785
		C878.439,1615.684,894.267,1635.281,886.502,1635.462z"/>
	<path d="M388.67,817.314c-0.973,0.445-1.429,1.874-0.654,2.721c0.859,1.207,3.315,0.607,3.129-1.015
		C391.373,817.71,389.787,816.731,388.67,817.314z"/>
	<path d="M707.682,824.486C707.754,826.444,709.526,823.675,707.682,824.486L707.682,824.486z"/>
	<path d="M389.865,825.693c-1.838,0.865-0.462,3.989,1.442,3.207C393.799,828.3,392.045,824.209,389.865,825.693z"/>
	<path d="M758.155,877.049c-20.182-36.186-47.225-51.069-48.917-51.44c37.867,26.765,58.575,68.065,68.108,114.082
		c11.219,55.088,4.175,100.906,3.652,109.421C792.136,1000.455,786.567,927.749,758.155,877.049z"/>
	<path d="M390.496,834.751c-1.718,1.111-0.18,4.019,1.748,3.153C394.562,836.985,392.586,833.171,390.496,834.751z"/>
	<path d="M393.458,845.395c0.877-1.412-1.028-3.196-2.397-2.349c-0.733,0.481-1.406,1.478-0.762,2.331
		C390.689,846.728,393.032,846.728,393.458,845.395z"/>
	<path d="M491.886,863.24c10.185-2.153,4.999-18.088-4.505-13.845C478.965,852.739,483.397,865.581,491.886,863.24z
		 M487.934,851.125c3.676-1.868,8.373,1.682,7.7,5.712c-0.384,3.982-5.514,6.307-8.685,3.766
		C483.519,858.357,484.15,852.639,487.934,851.125z"/>
	<path d="M393.025,853.179c0.273-2.745-4.553-2.099-3.43,0.547C389.974,855.588,393.295,855.149,393.025,853.179z"/>
	<path d="M391.079,860.508c-0.354-1.22-2.108-1.388-2.919-0.547c-1.064,0.967-0.313,2.823,1.039,3.022
		C390.466,863.235,391.734,861.649,391.079,860.508z"/>
	<path d="M386.184,871.055c2.431,0.807,3.599-4.265-0.523-3.304C384.393,868.562,384.598,870.796,386.184,871.055z"/>
	<path d="M489.682,869.109c-2.439,0.907-3.124,4.384-1.304,6.211c1.904,2.006,5.712,1.087,6.373-1.64
		C495.7,870.803,492.451,867.848,489.682,869.109z"/>
	<path d="M668.91,874.136c-0.949-7.179-12.688-5.76-11.46,1.832C658.274,883.937,670.702,881.639,668.91,874.136z M667.307,875.482
		c-0.048,2.991-3.904,5.027-6.337,3.177c-2.715-1.562-2.403-5.977,0.462-7.214C664.099,870.046,667.733,872.454,667.307,875.482z"/>
	<path d="M383.559,874.659c-1.862,0.078-1.634,3.123,0.216,2.877C385.661,877.5,385.409,874.401,383.559,874.659z"/>
	<path d="M454.736,905.598c-1.868,1.82-4.691,2.319-6.325,4.409c-6.144,6.907,8.986,15.018,14.548-1.478
		c4.043-11.938-4.514-29.491-24.453-26.074c-19.721,3.714-31.033,23.553-25.582,41.637c5.627,20.634,32.266,28.657,50.437,12.163
		c-17.217,6.037-31.525-4.474-35.294-16.872c-5.767-17.341,9.178-35.453,21.455-32.675
		C458.088,888.462,462.207,899.555,454.736,905.598z"/>
	<path d="M378.687,882.593c-0.961,1.286,0.751,3.003,1.94,1.772C381.708,883.085,379.888,881.578,378.687,882.593z"/>
	<path d="M491.826,897.363c10.624-0.589,7.477-17.52-2.637-14.289C480.695,885.35,483.2,898.337,491.826,897.363z M489.76,884.78
		c4.03-1.328,8.259,3.177,6.632,7.112c-1.1,3.591-6.115,4.961-8.818,2.3C484.228,891.591,485.694,885.711,489.76,884.78z"/>
	<path d="M668.015,885.831c-1.454,0.66-2.15,2.649-1.267,4.031c1.003,2.3,4.943,1.922,5.418-0.577
		C672.94,886.924,670.177,884.63,668.015,885.831z"/>
	<path d="M672.069,904.277c-0.647,9.673,14.805,9.488,14.001-0.006C686.344,895.678,672.19,894.963,672.069,904.277z
		 M683.722,906.404c-1.225,3.441-6.271,4.216-8.499,1.339c-2.265-2.469-1.063-6.698,1.964-7.905
		C681.043,898.006,685.614,902.541,683.722,906.404z"/>
	<path d="M296.212,971.717c-0.341-41.807,43.54-64.236,51.47-70.432c-30.853,15.951-55.864,40.881-52.714,75.195
		c9.148-15.179,21.678-28.855,37.781-36.712c43.08-20.761,63.656,18.021,44.604,30.795c-9.746,6.922-21.765-0.434-21.089-7.466
		c0.565-4.463,5.58-7.382,9.815-6.205c9.33,3.093,11.114-8.038,5.34-10.295c-8.421-2.775-18.278,4.589-17.707,13.521
		c-0.192,9.154,9.437,16.188,18.152,14.692c9.808-1.219,16.644-12.181,14.055-21.569
		C378.87,925.284,331.575,920.208,296.212,971.717z"/>
	<path d="M490.186,904.943c-3.009,1.34-2.943,6.223,0.091,7.478c2.462,1.357,5.808-0.577,5.946-3.358
		C496.733,905.874,492.955,903.441,490.186,904.943z"/>
	<path d="M682.515,918.993c-1.724,1.141-1.502,4.144,0.396,4.991c1.952,1.075,4.553-0.606,4.319-2.835
		C687.17,918.897,684.239,917.551,682.515,918.993z"/>
	<path d="M501.034,926.489c-0.405-8.793-14.452-9.007-14.584,0.619C486.269,937.252,502.264,936.427,501.034,926.489z
		 M491.586,922.068c3.634-1.778,8.265,1.646,7.652,5.635c-0.24,3.868-5.178,6.384-8.373,4.06
		C487.081,929.714,487.658,923.618,491.586,922.068z"/>
	<path d="M685.956,931.462c-9.231,2.758-4.57,17.121,4.457,13.935C699.669,942.714,695.175,928.31,685.956,931.462z M693.11,940.268
		c-1.165,3.4-5.922,4.535-8.469,1.982c-2.937-2.529-1.676-7.869,2.078-8.83C690.611,932.069,694.756,936.466,693.11,940.268z"/>
	<path d="M499.268,947.073c1.297-3.184-2.307-6.83-5.502-5.412c-2.859,0.817-3.748,4.842-1.718,6.926
		C494.042,950.941,498.421,950.07,499.268,947.073z"/>
	<path d="M691.753,955.314c-0.487-1.85-2.889-2.727-4.451-1.634c-1.874,1.117-1.676,4.391,0.421,5.184
		C689.879,959.981,692.624,957.597,691.753,955.314z"/>
	<path d="M505.521,963.129c-0.739-4.403-5.929-6.98-9.947-5.196c-6.903,2.739-5.339,13.223,1.766,13.929
		C502.157,972.811,506.788,967.886,505.521,963.129z M495.76,959.849c3.778-2.355,9.034,1.484,8.055,5.778
		c-0.534,3.754-5.352,5.922-8.439,3.622C491.94,967.207,492.198,961.627,495.76,959.849z"/>
	<path d="M627.044,975.743c10.635-0.733,7.251-17.717-2.877-14.236C615.696,963.973,618.523,976.854,627.044,975.743z
		 M624.852,963.483c3.88-1.364,8.007,3.057,6.379,6.842c-1.298,3.736-6.872,4.565-9.106,1.255
		C619.891,968.853,621.5,964.348,624.852,963.483z"/>
	<path d="M681.121,964.48c-9.08,2.087-5.977,16.204,2.985,14.278C693.865,977.34,690.965,961.857,681.121,964.48z M687.981,972.752
		c-0.697,3.459-5.244,5.321-8.073,3.099c-3.261-2.085-2.811-7.412,0.703-8.968C684.281,964.78,689.146,968.769,687.981,972.752z"/>
	<path d="M505.274,986.542c0.95-3.316-2.841-6.518-5.964-5.094c-3.261,1.166-3.616,6.265-0.589,7.893
		C501.16,990.867,504.757,989.413,505.274,986.542z"/>
	<path d="M633.123,994.235c2.529,1.322,5.784-1.351,4.823-4.078c-0.414-2.126-2.991-3.183-4.871-2.276
		C630.468,988.987,630.468,993.185,633.123,994.235z"/>
	<path d="M515.738,1003.925c-0.81-11.435-19.105-9.177-16.836,2.397C500.55,1017.123,517.306,1014.687,515.738,1003.925z
		 M506.957,1011.33c-3.394-0.174-6.361-3.351-6.073-6.769c0.126-7.774,11.985-8.237,12.794-0.547
		C514.351,1007.852,510.789,1011.594,506.957,1011.33z"/>
	<path d="M640.295,1024.533c5.658,0.649,10.962-4.763,10.085-10.409c-0.463-5.478-6.367-9.563-11.653-8.019
		C628.666,1008.422,629.807,1023.901,640.295,1024.533z M647.641,1013.619c1.298,4.385-3.039,9.094-7.502,8.271
		c-3.147-0.438-5.802-3.292-5.772-6.505C633.861,1007.364,646.04,1005.833,647.641,1013.619z"/>
	<path d="M515.576,1025.338c1.021-3.142-2.541-6.415-5.586-5.022c-3.25,1.004-3.604,6.103-0.571,7.581
		C511.666,1029.332,515.005,1027.945,515.576,1025.338z"/>
	<path d="M650.164,1039.429c0.901-3.081-2.415-6.162-5.412-5.027c-2.919,0.817-3.868,4.931-1.706,7.003
		C645.173,1043.676,649.611,1042.588,650.164,1039.429z"/>
	<path d="M515.66,1036.252c-11.322,3.059-6.124,20.632,5.045,17.028C531.836,1050.432,527.115,1032.707,515.66,1036.252z
		 M517.768,1051.514c-3.61-0.18-6.613-3.634-6.331-7.22c0.711-7.997,12.082-8.28,13.377-0.769
		C525.739,1047.646,521.984,1051.934,517.768,1051.514z"/>
	<path d="M649.822,1068.638c5.166,0.829,10.157-4.144,9.262-9.316c-0.451-5.015-6.001-8.463-10.728-6.859
		C639.876,1054.872,641.049,1067.765,649.822,1068.638z M656.512,1062.206c-1.135,4.264-7.226,5.568-10.049,2.216
		c-2.955-2.943-1.477-8.433,2.433-9.7C653.269,1052.98,658.182,1057.803,656.512,1062.206z"/>
	<path d="M695.657,1062.711c2.408,1.73,6.229-0.529,5.724-3.496c-0.012-2.475-2.793-4.127-5.039-3.292
		C693.489,1056.872,692.996,1061.245,695.657,1062.711z"/>
	<path d="M525.955,1068.171c1.555-3.064-2.103-6.65-5.148-5.16c-2.432,0.841-3.105,4.168-1.555,6.103
		C520.952,1071.348,525,1070.886,525.955,1068.171z"/>
	<path d="M541.163,1082.622c0.185-10.736-16.82-11.924-17.707-0.481C522.078,1094.484,541.999,1094.975,541.163,1082.622z
		 M539.05,1083.252c-0.18,3.898-4.157,7.13-8.025,6.247c-3.7-0.703-6.349-4.787-5.19-8.427
		C528.039,1073.145,539.716,1075.53,539.05,1083.252z"/>
	<path d="M654.765,1075.612c-2.787,1.262-2.541,5.923,0.475,6.715c2.637,1.099,5.64-1.844,4.655-4.493
		C659.396,1075.66,656.675,1074.693,654.765,1075.612z"/>
	<path d="M663.048,1108.792c11.944-3.347,7.285-21.595-4.709-18.788C645.458,1092.2,650.085,1112.726,663.048,1108.792z
		 M667.324,1100.107c-0.258,4.031-4.499,7.19-8.433,6.229c-3.856-0.763-6.601-5.196-5.22-8.95
		C656.285,1089.054,668.334,1092.333,667.324,1100.107z"/>
	<path d="M541.452,1103.128c0.877-2.775-2.162-5.538-4.853-4.493c-2.763,0.757-3.4,4.782-1.172,6.493
		C537.404,1106.81,540.947,1105.735,541.452,1103.128z"/>
	<path d="M536.016,1118.716c-0.215,12.207,18.961,11.35,17.743-0.625C553.477,1107.087,535.856,1107.058,536.016,1118.716z
		 M544.197,1125.412c-3.532-0.348-6.421-3.802-6.019-7.34c0.791-7.947,12.264-8.071,13.371-0.505
		C552.42,1121.76,548.444,1126.019,544.197,1125.412z"/>
	<path d="M686.304,1133.508c-0.6,6.391-2.252,12.836-5.886,18.212c-18.619-6.091-36.522-18.756-42.37-37.294
		c-1.388,2.461-8.486,26.39-0.786,49.319c13.418,45.895,37.238,26.305,27.246,17.749c3.676-1.003,6.469-3.808,8.751-6.721
		c2.18,4.21,6.577,6.745,8.433,11.166c6.492,12.847-2.884,31.928-24.621,26.08c6.882,32.879,37.67,35.401,37.246,9.4
		c0.295-12.224-5.913-23.175-7.268-29.402c-6.791-28.689,21.753-45.05,41.895,1.82
		C728.628,1178.072,713.941,1141.178,686.304,1133.508z M645.701,1167.999c-1.55-6.637,2.979-13.893,9.568-15.521
		c7.232-2.145,15.431,3.213,16.47,10.662C675.04,1179.814,648.844,1185.02,645.701,1167.999z"/>
	<path d="M659.059,1161.62c-2.45,1.033-2.997,4.823-0.811,6.403c2.097,1.934,5.929,0.402,6.151-2.439
		C664.921,1162.743,661.612,1160.389,659.059,1161.62z"/>
	<path d="M741.829,1326.114c-2.805,1.267-2.997,5.742-0.36,7.303c2.481,1.742,6.523-0.114,6.463-3.243
		C748.394,1327.009,744.562,1324.504,741.829,1326.114z"/>
	<path d="M735.258,1395.754c-2.751,1.273-2.601,5.724,0.228,6.794c2.295,1.093,5.34-0.715,5.238-3.316
		C741.018,1396.427,737.661,1394.402,735.258,1395.754z"/>
	<path d="M773.273,1446.983c1.171-3.075-2.505-6.319-5.412-4.751c-2.282,0.979-3.015,4.21-1.387,6.09
		C768.264,1450.647,772.57,1449.92,773.273,1446.983z"/>
</g>
</svg>
